<svg xmlns="http://www.w3.org/2000/svg" xmlns:xlink="http://www.w3.org/1999/xlink" xmlns:lucid="lucid" width="3142" height="2621"><g transform="translate(-379 -1420)" lucid:page-tab-id="0_0"><path d="M0 1000h4000v3500H0z" fill="#fff"/><path d="M380 1936a16 16 0 0 1 16-16h628a16 16 0 0 1 16 16v47.4H380z" stroke="#ffca73" stroke-width="2" fill="#ffdda6"/><path d="M380 1983.4h660V2664a16 16 0 0 1-16 16H396a16 16 0 0 1-16-16z" stroke="#ffca73" stroke-width="2" fill="none"/><use xlink:href="#a" transform="matrix(1,0,0,1,380,1920) translate(233.515625 46.55078125)"/><path d="M1320 1936a16 16 0 0 1 16-16h1108a16 16 0 0 1 16 16v47.4H1320z" stroke="#00c2a8" stroke-width="2" fill="#b8f5ed"/><path d="M1320 1983.4h1140V2444a16 16 0 0 1-16 16H1336a16 16 0 0 1-16-16z" stroke="#00c2a8" stroke-width="2" fill="none"/><use xlink:href="#b" transform="matrix(1,0,0,1,1320,1920) translate(504.755859375 46.55078125)"/><path d="M1620 2141.15a30 30 0 0 1 30-30h720a30 30 0 0 1 30 30v220a30 30 0 0 1-30 30h-720a30 30 0 0 1-30-30z" stroke="#00c2a8" stroke-width="2" fill-opacity="0"/><path d="M1620 2064.26a8 8 0 0 1 8-8h291.25a8 8 0 0 1 8 8v26.9a8 8 0 0 1-8 8H1628a8 8 0 0 1-8-8z" fill="#00c2a8"/><use xlink:href="#c" transform="matrix(1,0,0,1,1628,2064.2608862809334) translate(0 21.58376736111111)"/><use xlink:href="#d" transform="matrix(1,0,0,1,1628,2064.2608862809334) translate(78.74348958333333 21.58376736111111)"/><use xlink:href="#e" transform="matrix(1,0,0,1,1628,2064.2608862809334) translate(163.85633680555554 21.58376736111111)"/><use xlink:href="#f" transform="matrix(1,0,0,1,1628,2064.2608862809334) translate(200.41232638888889 21.58376736111111)"/><path d="M1700 2199.15a8 8 0 0 1 8-8h144a8 8 0 0 1 8 8v104a8 8 0 0 1-8 8h-144a8 8 0 0 1-8-8z" stroke="#000" stroke-width="2" fill="#00c2a8"/><use xlink:href="#g" transform="matrix(1,0,0,1,1712,2203.148907114267) translate(12.943576388888886 57.52777777777778)"/><use xlink:href="#h" transform="matrix(1,0,0,1,1712,2203.148907114267) translate(57.53993055555555 57.52777777777778)"/><use xlink:href="#i" transform="matrix(1,0,0,1,1712,2203.148907114267) translate(78.49262152777777 57.52777777777778)"/><path d="M1940 2199.15a8 8 0 0 1 8-8h144a8 8 0 0 1 8 8v104a8 8 0 0 1-8 8h-144a8 8 0 0 1-8-8z" stroke="#000" stroke-width="2" fill="#00c2a8"/><use xlink:href="#j" transform="matrix(1,0,0,1,1952,2203.148907114267) translate(41.974609375 24.52777777777778)"/><use xlink:href="#k" transform="matrix(1,0,0,1,1952,2203.148907114267) translate(16.811848958333336 56.79340277777778)"/><use xlink:href="#l" transform="matrix(1,0,0,1,1952,2203.148907114267) translate(35.751736111111114 89.05902777777777)"/><path d="M2180 2199.15a8 8 0 0 1 8-8h144a8 8 0 0 1 8 8v104a8 8 0 0 1-8 8h-144a8 8 0 0 1-8-8z" stroke="#000" stroke-width="2" fill="#00c2a8"/><use xlink:href="#m" transform="matrix(1,0,0,1,2192,2203.148907114267) translate(45.38715277777778 39.950954861111114)"/><use xlink:href="#n" transform="matrix(1,0,0,1,2192,2203.148907114267) translate(-9.289496527777771 72.21657986111111)"/><path d="M1620 2141.15a30 30 0 0 1 30-30h720a30 30 0 0 1 30 30v220a30 30 0 0 1-30 30h-720a30 30 0 0 1-30-30z" stroke="#00c2a8" stroke-width="2" fill-opacity="0"/><path d="M1620 2064.26a8 8 0 0 1 8-8h291.25a8 8 0 0 1 8 8v26.9a8 8 0 0 1-8 8H1628a8 8 0 0 1-8-8z" fill="#00c2a8"/><use xlink:href="#c" transform="matrix(1,0,0,1,1628,2064.2608862809334) translate(0 21.58376736111111)"/><use xlink:href="#d" transform="matrix(1,0,0,1,1628,2064.2608862809334) translate(78.74348958333333 21.58376736111111)"/><use xlink:href="#e" transform="matrix(1,0,0,1,1628,2064.2608862809334) translate(163.85633680555554 21.58376736111111)"/><use xlink:href="#f" transform="matrix(1,0,0,1,1628,2064.2608862809334) translate(200.41232638888889 21.58376736111111)"/><path d="M1700 2199.15a8 8 0 0 1 8-8h144a8 8 0 0 1 8 8v104a8 8 0 0 1-8 8h-144a8 8 0 0 1-8-8z" stroke="#000" stroke-width="2" fill="#00c2a8"/><use xlink:href="#g" transform="matrix(1,0,0,1,1712,2203.148907114267) translate(12.943576388888886 57.52777777777778)"/><use xlink:href="#h" transform="matrix(1,0,0,1,1712,2203.148907114267) translate(57.53993055555555 57.52777777777778)"/><use xlink:href="#i" transform="matrix(1,0,0,1,1712,2203.148907114267) translate(78.49262152777777 57.52777777777778)"/><path d="M1940 2199.15a8 8 0 0 1 8-8h144a8 8 0 0 1 8 8v104a8 8 0 0 1-8 8h-144a8 8 0 0 1-8-8z" stroke="#000" stroke-width="2" fill="#00c2a8"/><use xlink:href="#j" transform="matrix(1,0,0,1,1952,2203.148907114267) translate(41.974609375 24.52777777777778)"/><use xlink:href="#k" transform="matrix(1,0,0,1,1952,2203.148907114267) translate(16.811848958333336 56.79340277777778)"/><use xlink:href="#l" transform="matrix(1,0,0,1,1952,2203.148907114267) translate(35.751736111111114 89.05902777777777)"/><path d="M2180 2199.15a8 8 0 0 1 8-8h144a8 8 0 0 1 8 8v104a8 8 0 0 1-8 8h-144a8 8 0 0 1-8-8z" stroke="#000" stroke-width="2" fill="#00c2a8"/><use xlink:href="#m" transform="matrix(1,0,0,1,2192,2203.148907114267) translate(45.38715277777778 39.950954861111114)"/><use xlink:href="#n" transform="matrix(1,0,0,1,2192,2203.148907114267) translate(-9.289496527777771 72.21657986111111)"/><path d="M1600 2636a16 16 0 0 1 16-16h1888a16 16 0 0 1 16 16v47.4H1600z" stroke="#fe7070" stroke-width="2" fill="#ffd9d9"/><path d="M1600 2683.4h1920V4024a16 16 0 0 1-16 16H1616a16 16 0 0 1-16-16z" stroke="#fe7070" stroke-width="2" fill="none"/><use xlink:href="#o" transform="matrix(1,0,0,1,1600,2620) translate(778.623046875 46.55078125)"/><use xlink:href="#p" transform="matrix(1,0,0,1,1600,2620) translate(1006.630859375 46.55078125)"/><path d="M1175.97 2314l-.15 2-.48 1.98-.78 1.88-1.06 1.74-1.32 1.55-1.55 1.32-1.74 1.07-1.9.78-1.97.47-2 .15H992V2325h170.96l1.76-.14 1.7-.4 1.58-.67 1.48-.9 1.3-1.13 1.14-1.32.9-1.47.66-1.6.4-1.68.14-1.76v-24.52h1.95zm164.53-87.05h-153.46l-1.76.14-1.7.4-1.58.65-1.48.9-1.3 1.13-1.14 1.3-.9 1.5-.66 1.6-.4 1.67-.14 1.76v24.53h-1.95v-24.6l.15-2 .48-1.97.78-1.88 1.06-1.74 1.32-1.54 1.55-1.33 1.74-1.06 1.9-.77 1.97-.47 2-.16h153.53z" stroke="#333" stroke-width=".05" fill="#333"/><path d="M992.03 2326.95H991V2325h1.03z" fill="#333"/><path stroke="#333" stroke-width=".05" fill="#333"/><path d="M1355.76 2225.97l-14.26 4.64v-9.26z" fill="#333"/><path d="M1358.92 2225.97l-18.4 5.98V2220zm-16.45 3.3l10.14-3.3-10.13-3.3z" stroke="#333" stroke-width=".05" fill="#333"/><use xlink:href="#q" transform="matrix(1,0,0,1,1131.157794097222,2262.5289461352213) translate(0.005000000000002558 21.52777777777778)"/><use xlink:href="#r" transform="matrix(1,0,0,1,1131.157794097222,2262.5289461352213) translate(35.48677083333334 21.52777777777778)"/><path d="M1360 2168a8 8 0 0 1 8-8h208.22a8 8 0 0 1 8 8v115.95a8 8 0 0 1-8 8H1368a8 8 0 0 1-8-8z" stroke="#000" stroke-width="2" fill="#b8f5ed"/><use xlink:href="#s" transform="matrix(1,0,0,1,1365,2165) translate(51.222873263888886 67.27777777777777)"/><path d="M2800 1938.58a16 16 0 0 1 16-16h688a16 16 0 0 1 16 16v47.4h-720z" stroke="#54c45e" stroke-width="2" fill="#c3f7c8"/><path d="M2800 1985.97h720v464a16 16 0 0 1-16 16h-688a16 16 0 0 1-16-16z" stroke="#54c45e" stroke-width="2" fill="none"/><use xlink:href="#t" transform="matrix(1,0,0,1,2800,1922.5745190518878) translate(207.529296875 46.55078125)"/><use xlink:href="#u" transform="matrix(1,0,0,1,2800,1922.5745190518878) translate(357.412109375 46.55078125)"/><path d="M2840 2150.86a30 30 0 0 1 30-30h580a30 30 0 0 1 30 30v205.1a30 30 0 0 1-30 30h-580a30 30 0 0 1-30-30z" stroke="#54c45e" stroke-width="2" fill-opacity="0"/><path d="M2840 2073.97a8 8 0 0 1 8-8h280.86a8 8 0 0 1 8 8v26.9a8 8 0 0 1-8 8H2848a8 8 0 0 1-8-8z" fill="#54c45e"/><use xlink:href="#v" transform="matrix(1,0,0,1,2848,2073.972956551888) translate(0 21.58376736111111)"/><use xlink:href="#w" transform="matrix(1,0,0,1,2848,2073.972956551888) translate(108.62630208333333 21.58376736111111)"/><use xlink:href="#x" transform="matrix(1,0,0,1,2848,2073.972956551888) translate(201.01996527777777 21.58376736111111)"/><path d="M2967.03 2224.1a8 8 0 0 1 8-8h144a8 8 0 0 1 8 8v104a8 8 0 0 1-8 8h-144a8 8 0 0 1-8-8z" stroke="#000" stroke-width="2" fill="#54c45e"/><use xlink:href="#y" transform="matrix(1,0,0,1,2979.0307874771593,2228.1057690518883) translate(12.873046875000007 57.52777777777778)"/><path d="M3174.5 2224.1a8 8 0 0 1 8-8h144a8 8 0 0 1 8 8v104a8 8 0 0 1-8 8h-144a8 8 0 0 1-8-8z" stroke="#000" stroke-width="2" fill="#54c45e"/><use xlink:href="#z" transform="matrix(1,0,0,1,3186.513395395298,2228.1057690518883) translate(37.661458333333336 39.52777777777778)"/><use xlink:href="#A" transform="matrix(1,0,0,1,3186.513395395298,2228.1057690518883) translate(21.683810763888893 71.79340277777777)"/><path d="M2840 2150.86a30 30 0 0 1 30-30h580a30 30 0 0 1 30 30v205.1a30 30 0 0 1-30 30h-580a30 30 0 0 1-30-30z" stroke="#54c45e" stroke-width="2" fill-opacity="0"/><path d="M2840 2073.97a8 8 0 0 1 8-8h280.86a8 8 0 0 1 8 8v26.9a8 8 0 0 1-8 8H2848a8 8 0 0 1-8-8z" fill="#54c45e"/><use xlink:href="#v" transform="matrix(1,0,0,1,2848,2073.972956551888) translate(0 21.58376736111111)"/><use xlink:href="#w" transform="matrix(1,0,0,1,2848,2073.972956551888) translate(108.62630208333333 21.58376736111111)"/><use xlink:href="#x" transform="matrix(1,0,0,1,2848,2073.972956551888) translate(201.01996527777777 21.58376736111111)"/><path d="M2967.03 2224.1a8 8 0 0 1 8-8h144a8 8 0 0 1 8 8v104a8 8 0 0 1-8 8h-144a8 8 0 0 1-8-8z" stroke="#000" stroke-width="2" fill="#54c45e"/><use xlink:href="#y" transform="matrix(1,0,0,1,2979.0307874771593,2228.1057690518883) translate(12.873046875000007 57.52777777777778)"/><path d="M3174.5 2224.1a8 8 0 0 1 8-8h144a8 8 0 0 1 8 8v104a8 8 0 0 1-8 8h-144a8 8 0 0 1-8-8z" stroke="#000" stroke-width="2" fill="#54c45e"/><use xlink:href="#z" transform="matrix(1,0,0,1,3186.513395395298,2228.1057690518883) translate(37.661458333333336 39.52777777777778)"/><use xlink:href="#A" transform="matrix(1,0,0,1,3186.513395395298,2228.1057690518883) translate(21.683810763888893 71.79340277777777)"/><path d="M2820.5 2255.38v1.95h-84.7v-1.95zm-418.5-3.26v-1.95h102.2v1.95z" stroke="#333" stroke-width=".05" fill="#333"/><path d="M2402.03 2252.12H2401v-1.95h1.03z" fill="#333"/><path stroke="#333" stroke-width=".05" fill="#333"/><path d="M2835.76 2256.35l-14.26 4.64v-9.28z" fill="#333"/><path d="M2838.92 2256.35l-18.4 5.98v-11.95zm-16.45 3.3l10.14-3.3-10.13-3.3z" stroke="#333" stroke-width=".05" fill="#333"/><use xlink:href="#B" transform="matrix(1,0,0,1,2504.2122395833335,2240.3067828662374) translate(0.0049999999999954525 21.52777777777778)"/><use xlink:href="#C" transform="matrix(1,0,0,1,2504.2122395833335,2240.3067828662374) translate(58.45769097222222 21.52777777777778)"/><use xlink:href="#D" transform="matrix(1,0,0,1,2504.2122395833335,2240.3067828662374) translate(167.08399305555554 21.52777777777778)"/><path d="M2800 1938.58a16 16 0 0 1 16-16h688a16 16 0 0 1 16 16v47.4h-720z" stroke="#54c45e" stroke-width="2" fill="#c3f7c8"/><path d="M2800 1985.97h720v464a16 16 0 0 1-16 16h-688a16 16 0 0 1-16-16z" stroke="#54c45e" stroke-width="2" fill="none"/><use xlink:href="#t" transform="matrix(1,0,0,1,2800,1922.5745190518878) translate(207.529296875 46.55078125)"/><use xlink:href="#u" transform="matrix(1,0,0,1,2800,1922.5745190518878) translate(357.412109375 46.55078125)"/><path d="M2840 2150.86a30 30 0 0 1 30-30h580a30 30 0 0 1 30 30v205.1a30 30 0 0 1-30 30h-580a30 30 0 0 1-30-30z" stroke="#54c45e" stroke-width="2" fill-opacity="0"/><path d="M2840 2073.97a8 8 0 0 1 8-8h280.86a8 8 0 0 1 8 8v26.9a8 8 0 0 1-8 8H2848a8 8 0 0 1-8-8z" fill="#54c45e"/><use xlink:href="#v" transform="matrix(1,0,0,1,2848,2073.972956551888) translate(0 21.58376736111111)"/><use xlink:href="#w" transform="matrix(1,0,0,1,2848,2073.972956551888) translate(108.62630208333333 21.58376736111111)"/><use xlink:href="#x" transform="matrix(1,0,0,1,2848,2073.972956551888) translate(201.01996527777777 21.58376736111111)"/><path d="M2967.03 2224.1a8 8 0 0 1 8-8h144a8 8 0 0 1 8 8v104a8 8 0 0 1-8 8h-144a8 8 0 0 1-8-8z" stroke="#000" stroke-width="2" fill="#54c45e"/><use xlink:href="#y" transform="matrix(1,0,0,1,2979.0307874771593,2228.1057690518883) translate(12.873046875000007 57.52777777777778)"/><path d="M3174.5 2224.1a8 8 0 0 1 8-8h144a8 8 0 0 1 8 8v104a8 8 0 0 1-8 8h-144a8 8 0 0 1-8-8z" stroke="#000" stroke-width="2" fill="#54c45e"/><use xlink:href="#z" transform="matrix(1,0,0,1,3186.513395395298,2228.1057690518883) translate(37.661458333333336 39.52777777777778)"/><use xlink:href="#A" transform="matrix(1,0,0,1,3186.513395395298,2228.1057690518883) translate(21.683810763888893 71.79340277777777)"/><path d="M2840 2150.86a30 30 0 0 1 30-30h580a30 30 0 0 1 30 30v205.1a30 30 0 0 1-30 30h-580a30 30 0 0 1-30-30z" stroke="#54c45e" stroke-width="2" fill-opacity="0"/><path d="M2840 2073.97a8 8 0 0 1 8-8h280.86a8 8 0 0 1 8 8v26.9a8 8 0 0 1-8 8H2848a8 8 0 0 1-8-8z" fill="#54c45e"/><use xlink:href="#v" transform="matrix(1,0,0,1,2848,2073.972956551888) translate(0 21.58376736111111)"/><use xlink:href="#w" transform="matrix(1,0,0,1,2848,2073.972956551888) translate(108.62630208333333 21.58376736111111)"/><use xlink:href="#x" transform="matrix(1,0,0,1,2848,2073.972956551888) translate(201.01996527777777 21.58376736111111)"/><path d="M2967.03 2224.1a8 8 0 0 1 8-8h144a8 8 0 0 1 8 8v104a8 8 0 0 1-8 8h-144a8 8 0 0 1-8-8z" stroke="#000" stroke-width="2" fill="#54c45e"/><use xlink:href="#y" transform="matrix(1,0,0,1,2979.0307874771593,2228.1057690518883) translate(12.873046875000007 57.52777777777778)"/><path d="M3174.5 2224.1a8 8 0 0 1 8-8h144a8 8 0 0 1 8 8v104a8 8 0 0 1-8 8h-144a8 8 0 0 1-8-8z" stroke="#000" stroke-width="2" fill="#54c45e"/><use xlink:href="#z" transform="matrix(1,0,0,1,3186.513395395298,2228.1057690518883) translate(37.661458333333336 39.52777777777778)"/><use xlink:href="#A" transform="matrix(1,0,0,1,3186.513395395298,2228.1057690518883) translate(21.683810763888893 71.79340277777777)"/><path d="M2820.5 2255.38v1.95h-84.7v-1.95zm-418.5-3.26v-1.95h102.2v1.95z" stroke="#333" stroke-width=".05" fill="#333"/><path d="M2402.03 2252.12H2401v-1.95h1.03z" fill="#333"/><path stroke="#333" stroke-width=".05" fill="#333"/><path d="M2835.76 2256.35l-14.26 4.64v-9.28z" fill="#333"/><path d="M2838.92 2256.35l-18.4 5.98v-11.95zm-16.45 3.3l10.14-3.3-10.13-3.3z" stroke="#333" stroke-width=".05" fill="#333"/><use xlink:href="#B" transform="matrix(1,0,0,1,2504.2122395833335,2240.3067828662374) translate(0.0049999999999954525 21.52777777777778)"/><use xlink:href="#C" transform="matrix(1,0,0,1,2504.2122395833335,2240.3067828662374) translate(58.45769097222222 21.52777777777778)"/><use xlink:href="#D" transform="matrix(1,0,0,1,2504.2122395833335,2240.3067828662374) translate(167.08399305555554 21.52777777777778)"/><path d="M2200 2830a30 30 0 0 1 30-30h740a30 30 0 0 1 30 30v220a30 30 0 0 1-30 30h-740a30 30 0 0 1-30-30z" stroke="#fe7070" stroke-width="2" fill-opacity="0"/><path d="M2200 2753.1a8 8 0 0 1 8-8h214.13a8 8 0 0 1 8 8v26.9a8 8 0 0 1-8 8H2208a8 8 0 0 1-8-8z" fill="#fe7070"/><use xlink:href="#E" transform="matrix(1,0,0,1,2208,2753.1119791666665) translate(0 21.58376736111111)"/><use xlink:href="#F" transform="matrix(1,0,0,1,2208,2753.1119791666665) translate(88.80208333333333 21.58376736111111)"/><path d="M2700 3710a30 30 0 0 1 30-30h740a30 30 0 0 1 30 30v220a30 30 0 0 1-30 30h-740a30 30 0 0 1-30-30z" stroke="#fe7070" stroke-width="2" fill-opacity="0"/><path d="M2700 3633.1a8 8 0 0 1 8-8h245.64a8 8 0 0 1 8 8v26.9a8 8 0 0 1-8 8H2708a8 8 0 0 1-8-8z" fill="#fe7070"/><use xlink:href="#G" transform="matrix(1,0,0,1,2708,3633.1119791666665) translate(0 21.58376736111111)"/><use xlink:href="#F" transform="matrix(1,0,0,1,2708,3633.1119791666665) translate(120.31249999999999 21.58376736111111)"/><path d="M2780 3768a8 8 0 0 1 8-8h144a8 8 0 0 1 8 8v104a8 8 0 0 1-8 8h-144a8 8 0 0 1-8-8z" stroke="#000" stroke-width="2" fill="#fe7070"/><use xlink:href="#H" transform="matrix(1,0,0,1,2792,3772) translate(32.724392361111114 24.52777777777778)"/><use xlink:href="#I" transform="matrix(1,0,0,1,2792,3772) translate(29.66449652777778 56.79340277777778)"/><use xlink:href="#J" transform="matrix(1,0,0,1,2792,3772) translate(31.292100694444443 89.05902777777777)"/><path d="M3020 3768a8 8 0 0 1 8-8h144a8 8 0 0 1 8 8v104a8 8 0 0 1-8 8h-144a8 8 0 0 1-8-8z" stroke="#000" stroke-width="2" fill="#fe7070"/><use xlink:href="#K" transform="matrix(1,0,0,1,3032,3772) translate(29.659071180555557 39.52777777777778)"/><use xlink:href="#L" transform="matrix(1,0,0,1,3032,3772) translate(14.587456597222236 71.79340277777777)"/><path d="M3260 3768a8 8 0 0 1 8-8h144a8 8 0 0 1 8 8v104a8 8 0 0 1-8 8h-144a8 8 0 0 1-8-8z" stroke="#000" stroke-width="2" fill="#fe7070"/><use xlink:href="#M" transform="matrix(1,0,0,1,3272,3772) translate(4.393229166666664 39.52777777777778)"/><use xlink:href="#N" transform="matrix(1,0,0,1,3272,3772) translate(63.59461805555555 39.52777777777778)"/><use xlink:href="#O" transform="matrix(1,0,0,1,3272,3772) translate(45.392578125 71.79340277777777)"/><path d="M2700 3710a30 30 0 0 1 30-30h740a30 30 0 0 1 30 30v220a30 30 0 0 1-30 30h-740a30 30 0 0 1-30-30z" stroke="#fe7070" stroke-width="2" fill-opacity="0"/><path d="M2700 3633.1a8 8 0 0 1 8-8h245.64a8 8 0 0 1 8 8v26.9a8 8 0 0 1-8 8H2708a8 8 0 0 1-8-8z" fill="#fe7070"/><use xlink:href="#G" transform="matrix(1,0,0,1,2708,3633.1119791666665) translate(0 21.58376736111111)"/><use xlink:href="#F" transform="matrix(1,0,0,1,2708,3633.1119791666665) translate(120.31249999999999 21.58376736111111)"/><path d="M2780 3768a8 8 0 0 1 8-8h144a8 8 0 0 1 8 8v104a8 8 0 0 1-8 8h-144a8 8 0 0 1-8-8z" stroke="#000" stroke-width="2" fill="#fe7070"/><use xlink:href="#H" transform="matrix(1,0,0,1,2792,3772) translate(32.724392361111114 24.52777777777778)"/><use xlink:href="#I" transform="matrix(1,0,0,1,2792,3772) translate(29.66449652777778 56.79340277777778)"/><use xlink:href="#J" transform="matrix(1,0,0,1,2792,3772) translate(31.292100694444443 89.05902777777777)"/><path d="M3020 3768a8 8 0 0 1 8-8h144a8 8 0 0 1 8 8v104a8 8 0 0 1-8 8h-144a8 8 0 0 1-8-8z" stroke="#000" stroke-width="2" fill="#fe7070"/><use xlink:href="#K" transform="matrix(1,0,0,1,3032,3772) translate(29.659071180555557 39.52777777777778)"/><use xlink:href="#L" transform="matrix(1,0,0,1,3032,3772) translate(14.587456597222236 71.79340277777777)"/><path d="M3260 3768a8 8 0 0 1 8-8h144a8 8 0 0 1 8 8v104a8 8 0 0 1-8 8h-144a8 8 0 0 1-8-8z" stroke="#000" stroke-width="2" fill="#fe7070"/><use xlink:href="#M" transform="matrix(1,0,0,1,3272,3772) translate(4.393229166666664 39.52777777777778)"/><use xlink:href="#N" transform="matrix(1,0,0,1,3272,3772) translate(63.59461805555555 39.52777777777778)"/><use xlink:href="#O" transform="matrix(1,0,0,1,3272,3772) translate(45.392578125 71.79340277777777)"/><path d="M1473.08 3807.96l.14 1.76.4 1.7.67 1.58.9 1.48 1.12 1.3 1.3 1.14 1.5.9 1.58.66 1.68.4 1.77.14h309.6v1.95h-309.68l-2-.15-1.97-.48-1.88-.78-1.74-1.06-1.55-1.32-1.32-1.55-1.05-1.74-.78-1.9-.48-1.97-.17-2V2293.96h1.95zm1207.42 11.07v1.94h-251.47v-1.94z" stroke="#333" stroke-width=".05" fill="#333"/><path d="M1473.08 2293.97h-1.95v-1.02h1.95z" fill="#333"/><path stroke="#333" stroke-width=".05" fill="#333"/><path d="M2695.76 3820l-14.26 4.64v-9.28z" fill="#333"/><path d="M2698.92 3820l-18.4 5.98v-11.96zm-16.45 3.3l10.14-3.3-10.13-3.3z" stroke="#333" stroke-width=".05" fill="#333"/><use xlink:href="#P" transform="matrix(1,0,0,1,1793.7506100745786,3806.5559895833335) translate(0.0049999999999954525 21.52777777777778)"/><use xlink:href="#Q" transform="matrix(1,0,0,1,1793.7506100745786,3806.5559895833335) translate(34.7489236111111 21.52777777777778)"/><use xlink:href="#R" transform="matrix(1,0,0,1,1793.7506100745786,3806.5559895833335) translate(125.56923611111111 21.52777777777778)"/><use xlink:href="#S" transform="matrix(1,0,0,1,1793.7506100745786,3806.5559895833335) translate(195.72982638888888 21.52777777777778)"/><use xlink:href="#T" transform="matrix(1,0,0,1,1793.7506100745786,3806.5559895833335) translate(235.46506944444445 21.52777777777778)"/><use xlink:href="#U" transform="matrix(1,0,0,1,1793.7506100745786,3806.5559895833335) translate(260.2263541666667 21.52777777777778)"/><use xlink:href="#V" transform="matrix(1,0,0,1,1793.7506100745786,3806.5559895833335) translate(411.3873784722222 21.52777777777778)"/><use xlink:href="#W" transform="matrix(1,0,0,1,1793.7506100745786,3806.5559895833335) translate(492.7458854166667 21.52777777777778)"/><use xlink:href="#X" transform="matrix(1,0,0,1,1793.7506100745786,3806.5559895833335) translate(513.6985763888889 21.52777777777778)"/><path d="M1770 3470a30 30 0 0 1 30-30h740a30 30 0 0 1 30 30v220a30 30 0 0 1-30 30h-740a30 30 0 0 1-30-30z" stroke="#fe7070" stroke-width="2" fill-opacity="0"/><path d="M1770 3393.1a8 8 0 0 1 8-8h211.46a8 8 0 0 1 8 8v26.9a8 8 0 0 1-8 8H1778a8 8 0 0 1-8-8z" fill="#fe7070"/><g><use xlink:href="#Y" transform="matrix(1,0,0,1,1778,3393.1119791666665) translate(0 21.58376736111111)"/><use xlink:href="#F" transform="matrix(1,0,0,1,1778,3393.1119791666665) translate(86.1328125 21.58376736111111)"/></g><path d="M1850 3528a8 8 0 0 1 8-8h144a8 8 0 0 1 8 8v104a8 8 0 0 1-8 8h-144a8 8 0 0 1-8-8z" stroke="#000" stroke-width="2" fill="#fe7070"/><g><use xlink:href="#Z" transform="matrix(1,0,0,1,1862,3532) translate(13.442708333333336 39.52777777777778)"/><use xlink:href="#aa" transform="matrix(1,0,0,1,1862,3532) translate(25.942708333333336 71.79340277777777)"/></g><path d="M2090 3528a8 8 0 0 1 8-8h144a8 8 0 0 1 8 8v104a8 8 0 0 1-8 8h-144a8 8 0 0 1-8-8z" stroke="#000" stroke-width="2" fill="#fe7070"/><g><use xlink:href="#ab" transform="matrix(1,0,0,1,2102,3532) translate(4.371527777777786 39.52777777777778)"/><use xlink:href="#ac" transform="matrix(1,0,0,1,2102,3532) translate(81.17274305555556 39.52777777777778)"/><use xlink:href="#J" transform="matrix(1,0,0,1,2102,3532) translate(31.292100694444443 71.79340277777777)"/></g><path d="M2330 3528a8 8 0 0 1 8-8h144a8 8 0 0 1 8 8v104a8 8 0 0 1-8 8h-144a8 8 0 0 1-8-8z" stroke="#000" stroke-width="2" fill="#fe7070"/><g><use xlink:href="#M" transform="matrix(1,0,0,1,2342,3532) translate(15.347005208333336 39.52777777777778)"/><use xlink:href="#ad" transform="matrix(1,0,0,1,2342,3532) translate(74.54839409722223 39.52777777777778)"/><use xlink:href="#ae" transform="matrix(1,0,0,1,2342,3532) translate(10.312282986111114 71.79340277777777)"/><use xlink:href="#O" transform="matrix(1,0,0,1,2342,3532) translate(80.47287326388889 71.79340277777777)"/></g><path d="M430 2115.97a30 30 0 0 1 30-30h500a30 30 0 0 1 30 30v420a30 30 0 0 1-30 30H460a30 30 0 0 1-30-30z" stroke="#fc9432" stroke-width="2" fill-opacity="0"/><path d="M430 2039.1a8 8 0 0 1 8-8h307.67a8 8 0 0 1 8 8v26.87a8 8 0 0 1-8 8H438a8 8 0 0 1-8-8z" fill="#fc9432"/><g><use xlink:href="#af" transform="matrix(1,0,0,1,438,2039.0849357185546) translate(0 21.58376736111111)"/><use xlink:href="#ag" transform="matrix(1,0,0,1,438,2039.0849357185546) translate(62.912326388888886 21.58376736111111)"/><use xlink:href="#ah" transform="matrix(1,0,0,1,438,2039.0849357185546) translate(176.3671875 21.58376736111111)"/></g><path d="M510 2173.97a8 8 0 0 1 8-8h144a8 8 0 0 1 8 8v104a8 8 0 0 1-8 8H518a8 8 0 0 1-8-8z" stroke="#000" stroke-width="2" fill="#fc9432"/><g><use xlink:href="#ai" transform="matrix(1,0,0,1,522,2177.972956551888) translate(22.812282986111114 39.52777777777778)"/><use xlink:href="#aj" transform="matrix(1,0,0,1,522,2177.972956551888) translate(66.71419270833334 39.52777777777778)"/><use xlink:href="#ak" transform="matrix(1,0,0,1,522,2177.972956551888) translate(3.215928819444457 71.79340277777777)"/></g><path d="M750 2173.97a8 8 0 0 1 8-8h144a8 8 0 0 1 8 8v104a8 8 0 0 1-8 8H758a8 8 0 0 1-8-8z" stroke="#000" stroke-width="2" fill="#fc9432"/><g><use xlink:href="#K" transform="matrix(1,0,0,1,762,2177.972956551888) translate(29.659071180555557 24.52777777777778)"/><use xlink:href="#al" transform="matrix(1,0,0,1,762,2177.972956551888) translate(29.376953125000007 56.79340277777778)"/><use xlink:href="#am" transform="matrix(1,0,0,1,762,2177.972956551888) translate(39.16427951388889 89.05902777777777)"/></g><path d="M510 2373.97a8 8 0 0 1 8-8h144a8 8 0 0 1 8 8v104a8 8 0 0 1-8 8H518a8 8 0 0 1-8-8z" stroke="#000" stroke-width="2" fill="#fc9432"/><g><use xlink:href="#an" transform="matrix(1,0,0,1,522,2377.972956551888) translate(38.36675347222223 39.52777777777778)"/><use xlink:href="#ao" transform="matrix(1,0,0,1,522,2377.972956551888) translate(25.32964409722223 71.79340277777777)"/></g><path d="M430 2115.97a30 30 0 0 1 30-30h500a30 30 0 0 1 30 30v420a30 30 0 0 1-30 30H460a30 30 0 0 1-30-30z" stroke="#fc9432" stroke-width="2" fill-opacity="0"/><path d="M430 2039.1a8 8 0 0 1 8-8h307.67a8 8 0 0 1 8 8v26.87a8 8 0 0 1-8 8H438a8 8 0 0 1-8-8z" fill="#fc9432"/><g><use xlink:href="#af" transform="matrix(1,0,0,1,438,2039.0849357185546) translate(0 21.58376736111111)"/><use xlink:href="#ag" transform="matrix(1,0,0,1,438,2039.0849357185546) translate(62.912326388888886 21.58376736111111)"/><use xlink:href="#ah" transform="matrix(1,0,0,1,438,2039.0849357185546) translate(176.3671875 21.58376736111111)"/></g><path d="M510 2173.97a8 8 0 0 1 8-8h144a8 8 0 0 1 8 8v104a8 8 0 0 1-8 8H518a8 8 0 0 1-8-8z" stroke="#000" stroke-width="2" fill="#fc9432"/><g><use xlink:href="#ai" transform="matrix(1,0,0,1,522,2177.972956551888) translate(22.812282986111114 39.52777777777778)"/><use xlink:href="#aj" transform="matrix(1,0,0,1,522,2177.972956551888) translate(66.71419270833334 39.52777777777778)"/><use xlink:href="#ak" transform="matrix(1,0,0,1,522,2177.972956551888) translate(3.215928819444457 71.79340277777777)"/></g><path d="M750 2173.97a8 8 0 0 1 8-8h144a8 8 0 0 1 8 8v104a8 8 0 0 1-8 8H758a8 8 0 0 1-8-8z" stroke="#000" stroke-width="2" fill="#fc9432"/><g><use xlink:href="#K" transform="matrix(1,0,0,1,762,2177.972956551888) translate(29.659071180555557 24.52777777777778)"/><use xlink:href="#al" transform="matrix(1,0,0,1,762,2177.972956551888) translate(29.376953125000007 56.79340277777778)"/><use xlink:href="#am" transform="matrix(1,0,0,1,762,2177.972956551888) translate(39.16427951388889 89.05902777777777)"/></g><path d="M510 2373.97a8 8 0 0 1 8-8h144a8 8 0 0 1 8 8v104a8 8 0 0 1-8 8H518a8 8 0 0 1-8-8z" stroke="#000" stroke-width="2" fill="#fc9432"/><g><use xlink:href="#an" transform="matrix(1,0,0,1,522,2377.972956551888) translate(38.36675347222223 39.52777777777778)"/><use xlink:href="#ao" transform="matrix(1,0,0,1,522,2377.972956551888) translate(25.32964409722223 71.79340277777777)"/></g><path d="M2520 2868a8 8 0 0 1 8-8h144a8 8 0 0 1 8 8v104a8 8 0 0 1-8 8h-144a8 8 0 0 1-8-8z" stroke="#000" stroke-width="2" fill="#fe7070"/><g><use xlink:href="#ap" transform="matrix(1,0,0,1,2532,2872) translate(26.723958333333336 57.52777777777778)"/></g><path d="M1393.58 2907.96l.13 1.76.42 1.7.66 1.58.9 1.48 1.13 1.3 1.32 1.14 1.48.9 1.6.66 1.68.4 1.76.14h61.64l.16-1 2.1-2.88 3.5-1.14 2.04.33 2.9 2.12.84 2.58h290.58v1.94h-292l-1.1-3.32-2-1.47-1.1-.18-2.44.8-1.47 2-.36 2.17h-63.38l-2-.15-1.97-.48-1.9-.78-1.73-1.06-1.55-1.32-1.32-1.55-1.06-1.74-.78-1.9-.48-1.97-.15-2v-596.58h1.94zM2518 2919.03v1.94h-522.4v-1.94z" stroke="#333" stroke-width=".05" fill="#333"/><path d="M2519 2920.97h-1.03v-1.94h1.03z" fill="#333"/><path stroke="#333" stroke-width=".05" fill="#333"/><path d="M1397.23 2310.45h-9.27l4.64-14.27z" fill="#333"/><path d="M1398.58 2311.42h-11.96l5.98-18.4zm-9.27-1.95h6.6l-3.3-10.13z" stroke="#333" stroke-width=".05" fill="#333"/><g><use xlink:href="#aq" transform="matrix(1,0,0,1,1768.404079861111,2906.5559895833335) translate(0.0049999999999954525 21.52777777777778)"/><use xlink:href="#ar" transform="matrix(1,0,0,1,1768.404079861111,2906.5559895833335) translate(97.0753125 21.52777777777778)"/><use xlink:href="#as" transform="matrix(1,0,0,1,1768.404079861111,2906.5559895833335) translate(153.78104166666665 21.52777777777778)"/></g><path d="M2275.35 3210.97h-93.3l-1.77.14-1.7.42-1.58.66-1.48.9-1.3 1.13-1.14 1.32-.9 1.48-.66 1.6-.4 1.68-.14 1.76v177.06h-1.95v-177.14l.15-2 .48-1.97.78-1.9 1.06-1.73 1.32-1.55 1.55-1.32 1.74-1.06 1.9-.78 1.97-.48 2-.15h93.38zm325.63-12.93l-.16 2-.48 1.97-.78 1.9-1.06 1.73-1.32 1.55-1.55 1.32-1.74 1.06-1.9.78-1.97.48-2 .15h-93.38v-1.94h93.3l1.77-.14 1.7-.42 1.58-.66 1.48-.9 1.3-1.13 1.14-1.32.9-1.48.66-1.6.4-1.68.14-1.76V2982h1.95z" stroke="#333" stroke-width=".05" fill="#333"/><path d="M2600.97 2982.03h-1.94V2981h1.94z" fill="#333"/><path stroke="#333" stroke-width=".05" fill="#333"/><path d="M2170 3435.76l-11.6-35.66h23.2z" fill="#333"/><path d="M2170 3438.92l-12.93-39.8h25.86zm-10.25-37.85l10.25 31.54 10.25-31.53z" stroke="#333" stroke-width=".05" fill="#333"/><g><use xlink:href="#aq" transform="matrix(1,0,0,1,2275.3537326388887,3196.5559645833337) translate(0.0049999999999954525 21.52777777777778)"/><use xlink:href="#at" transform="matrix(1,0,0,1,2275.3537326388887,3196.5559645833337) translate(97.0753125 21.52777777777778)"/></g><path d="M3088.04 3329.03l2 .15 1.97.48 1.9.78 1.73 1.06 1.55 1.32 1.32 1.55 1.06 1.74.78 1.9.48 1.97.15 2v297.13h-1.94v-297.06l-.14-1.76-.42-1.7-.66-1.58-.9-1.48-1.13-1.3-1.32-1.14-1.48-.9-1.6-.66-1.68-.4-1.76-.14h-72.57v-1.95zm-486.93-9.3l.42 1.68.66 1.6.9 1.48 1.13 1.3 1.32 1.14 1.48.9 1.6.66 1.68.4 1.76.14H2770v1.95h-158.04l-2-.15-1.97-.48-1.9-.78-1.73-1.06-1.55-1.32-1.32-1.55-1.06-1.74-.78-1.9-.48-1.97-.15-2V2982h1.94v335.96z" stroke="#333" stroke-width=".05" fill="#333"/><path d="M2600.97 2982.03h-1.94V2981h1.94z" fill="#333"/><path stroke="#333" stroke-width=".05" fill="#333"/><path d="M3100 3675.76l-11.6-35.66h23.2z" fill="#333"/><path d="M3100 3678.92l-12.93-39.8h25.86zm-10.25-37.85l10.25 31.54 10.25-31.53z" stroke="#333" stroke-width=".05" fill="#333"/><g><use xlink:href="#aq" transform="matrix(1,0,0,1,2769.9907697895705,3316.5559645833337) translate(0.0049999999999954525 21.52777777777778)"/><use xlink:href="#au" transform="matrix(1,0,0,1,2769.9907697895705,3316.5559645833337) translate(97.0753125 21.52777777777778)"/><use xlink:href="#av" transform="matrix(1,0,0,1,2769.9907697895705,3316.5559645833337) translate(187.505 21.52777777777778)"/></g><path d="M1200 1428a8 8 0 0 1 8-8h1711.1a8 8 0 0 1 8 8v304a8 8 0 0 1-8 8H1208a8 8 0 0 1-8-8z" fill="none"/><g><use xlink:href="#aw" transform="matrix(1,0,0,1,1205,1425) translate(0 232.60416666666669)"/><use xlink:href="#ax" transform="matrix(1,0,0,1,1205,1425) translate(1117.2916666666667 232.60416666666669)"/></g><defs><path d="M645 0H180v-1490h484c435 0 692 280 692 742 0 466-257 748-711 748zM370-168h263c363 0 539-218 539-580 0-358-176-574-521-574H370v1154" id="ay"/><path d="M628 24c-324 0-524-230-524-574 0-343 198-582 503-582 237 0 487 146 487 559v75H286c9 234 145 362 343 362 132 0 231-58 273-172l174 48C1024-91 857 24 628 24zM287-650h624c-17-190-120-322-304-322-192 0-309 151-320 322" id="az"/><path d="M481 0L54-1118h197c107 314 236 620 325 951 87-331 217-637 324-951h197L670 0H481" id="aA"/><path d="M338-1490V0H158v-1490h180" id="aB"/><path d="M613 24c-304 0-509-231-509-576 0-350 205-580 509-580 305 0 511 230 511 580 0 345-206 576-511 576zm0-161c226 0 329-195 329-415 0-222-103-419-329-419-223 0-326 196-326 419 0 220 103 415 326 415" id="aC"/><path d="M158 418v-1536h174v179h20c37-59 106-193 324-193 279 0 474 222 474 576 0 356-194 580-473 580-213 0-288-135-325-197h-14v591H158zm492-555c209 0 317-186 317-421 0-232-105-413-317-413-206 0-314 166-314 413 0 249 111 421 314 421" id="aD"/><path d="M158 0v-1118h174v172h12c41-113 157-188 290-188 26 0 70 2 91 3v181c-11-2-60-10-108-10-161 0-279 109-279 260V0H158" id="aE"/><g id="a"><use transform="matrix(0.01953125,0,0,0.01953125,0,0)" xlink:href="#ay"/><use transform="matrix(0.01953125,0,0,0.01953125,28.8671875,0)" xlink:href="#az"/><use transform="matrix(0.01953125,0,0,0.01953125,51.40625,0)" xlink:href="#aA"/><use transform="matrix(0.01953125,0,0,0.01953125,73.10546875,0)" xlink:href="#az"/><use transform="matrix(0.01953125,0,0,0.01953125,96.42578125,0)" xlink:href="#aB"/><use transform="matrix(0.01953125,0,0,0.01953125,106.11328125,0)" xlink:href="#aC"/><use transform="matrix(0.01953125,0,0,0.01953125,130.09765625,0)" xlink:href="#aD"/><use transform="matrix(0.01953125,0,0,0.01953125,154.58984375,0)" xlink:href="#az"/><use transform="matrix(0.01953125,0,0,0.01953125,177.91015625,0)" xlink:href="#aE"/></g><path d="M789 20c-398 0-667-293-667-764 0-473 273-766 655-766 315 0 558 198 612 487h-196c-61-191-204-311-415-311-262 0-471 207-471 590 0 380 208 588 482 588 249 0 420-165 425-427H828v-166h572v163c0 370-256 606-611 606" id="aF"/><path d="M158 0v-1118h180V0H158zm91-1301c-68 0-125-53-125-119s57-119 125-119c69 0 126 53 126 119s-57 119-126 119" id="aG"/><path d="M598-1118v154H368v674c0 100 37 144 132 144 23 0 62-6 92-12L629-6c-37 13-88 20-134 20-193 0-307-107-307-290v-688H20v-154h168v-266h180v266h230" id="aH"/><path d="M180 0v-1490h190v644h782v-644h190V0h-190v-678H370V0H180" id="aI"/><path d="M537 14c-226 0-379-139-379-422v-710h180v695c0 172 97 275 253 275 160 0 281-109 281-300v-670h181V0H879v-209C806-46 684 14 537 14" id="aJ"/><path d="M677 24c-213 0-288-135-325-197h-20V0H158v-1490h180v551h14c37-59 106-193 324-193 279 0 474 222 474 576 0 356-194 580-473 580zm-27-161c209 0 317-186 317-421 0-232-105-413-317-413-206 0-314 166-314 413 0 249 111 421 314 421" id="aK"/><g id="b"><use transform="matrix(0.01953125,0,0,0.01953125,0,0)" xlink:href="#aF"/><use transform="matrix(0.01953125,0,0,0.01953125,29.84375,0)" xlink:href="#aG"/><use transform="matrix(0.01953125,0,0,0.01953125,39.53125,0)" xlink:href="#aH"/><use transform="matrix(0.01953125,0,0,0.01953125,52.6171875,0)" xlink:href="#aI"/><use transform="matrix(0.01953125,0,0,0.01953125,82.34375,0)" xlink:href="#aJ"/><use transform="matrix(0.01953125,0,0,0.01953125,105.99609375,0)" xlink:href="#aK"/></g><g id="c"><use transform="matrix(0.010850694444444444,0,0,0.010850694444444444,0,0)" xlink:href="#aF"/><use transform="matrix(0.010850694444444444,0,0,0.010850694444444444,16.57986111111111,0)" xlink:href="#aG"/><use transform="matrix(0.010850694444444444,0,0,0.010850694444444444,21.961805555555557,0)" xlink:href="#aH"/><use transform="matrix(0.010850694444444444,0,0,0.010850694444444444,29.231770833333336,0)" xlink:href="#aI"/><use transform="matrix(0.010850694444444444,0,0,0.010850694444444444,45.74652777777778,0)" xlink:href="#aJ"/><use transform="matrix(0.010850694444444444,0,0,0.010850694444444444,58.88671875,0)" xlink:href="#aK"/></g><path d="M52 0l541-1490h220L1361 0h-200l-149-416H398L254 0H52zm404-582h497c-103-290-145-390-251-756-108 377-145 460-246 756" id="aL"/><path d="M613 24c-304 0-509-231-509-576 0-350 205-580 509-580 216 0 392 114 453 309l-173 49c-33-115-133-197-280-197-223 0-326 196-326 419 0 220 103 415 326 415 150 0 252-85 285-206l172 49C1010-95 832 24 613 24" id="aM"/><path d="M338-670V0H158v-1118h173l1 207c72-158 192-221 342-221 226 0 378 139 378 422V0H872v-695c0-172-96-275-252-275-161 0-282 109-282 300" id="aN"/><path d="M538 24C308 24 148-78 108-271l171-41c32 123 123 178 257 178 156 0 256-77 256-169 0-77-54-128-164-154l-186-44c-203-48-300-148-300-305 0-192 176-326 414-326 230 0 351 112 402 269l-163 42c-31-80-94-158-238-158-133 0-233 69-233 162 0 83 57 129 188 160l169 40c203 48 298 149 298 302 0 196-179 339-441 339" id="aO"/><g id="d"><use transform="matrix(0.010850694444444444,0,0,0.010850694444444444,0,0)" xlink:href="#aL"/><use transform="matrix(0.010850694444444444,0,0,0.010850694444444444,15.33203125,0)" xlink:href="#aM"/><use transform="matrix(0.010850694444444444,0,0,0.010850694444444444,28.02734375,0)" xlink:href="#aH"/><use transform="matrix(0.010850694444444444,0,0,0.010850694444444444,35.29730902777778,0)" xlink:href="#aG"/><use transform="matrix(0.010850694444444444,0,0,0.010850694444444444,40.67925347222222,0)" xlink:href="#aC"/><use transform="matrix(0.010850694444444444,0,0,0.010850694444444444,54.00390625,0)" xlink:href="#aN"/><use transform="matrix(0.010850694444444444,0,0,0.010850694444444444,67.13324652777777,0)" xlink:href="#aO"/></g><path d="M218-607c0-325 108-727 258-974h175c-155 315-250 682-250 974 0 265 78 531 250 886H476C306-10 218-315 218-607" id="aP"/><path d="M783 20c-382 0-661-292-661-764 0-473 279-766 661-766 302 0 548 182 601 489h-190c-42-204-217-313-411-313-268 0-476 208-476 590 0 381 209 588 476 588 195 0 369-110 411-313h190c-52 303-296 489-601 489" id="aQ"/><path d="M370-1490V0H180v-1490h190" id="aR"/><g id="e"><use transform="matrix(0.010850694444444444,0,0,0.010850694444444444,0,0)" xlink:href="#aP"/><use transform="matrix(0.010850694444444444,0,0,0.010850694444444444,8.10546875,0)" xlink:href="#aQ"/><use transform="matrix(0.010850694444444444,0,0,0.010850694444444444,24.33810763888889,0)" xlink:href="#aR"/></g><path d="M180 0v-1490h510c348 0 508 209 508 474 0 266-160 477-507 477H370V0H180zm190-706h312c236 0 327-133 327-310 0-176-91-307-329-307H370v617" id="aS"/><path d="M96 279C273-86 346-350 346-607c0-292-95-659-250-974h175c150 246 258 650 258 974 0 297-91 602-258 886H96" id="aT"/><g id="f"><use transform="matrix(0.010850694444444444,0,0,0.010850694444444444,0,0)" xlink:href="#aS"/><use transform="matrix(0.010850694444444444,0,0,0.010850694444444444,14.192708333333332,0)" xlink:href="#aG"/><use transform="matrix(0.010850694444444444,0,0,0.010850694444444444,19.57465277777778,0)" xlink:href="#aD"/><use transform="matrix(0.010850694444444444,0,0,0.010850694444444444,33.181423611111114,0)" xlink:href="#az"/><use transform="matrix(0.010850694444444444,0,0,0.010850694444444444,46.13715277777778,0)" xlink:href="#aB"/><use transform="matrix(0.010850694444444444,0,0,0.010850694444444444,51.51909722222222,0)" xlink:href="#aG"/><use transform="matrix(0.010850694444444444,0,0,0.010850694444444444,56.901041666666664,0)" xlink:href="#aN"/><use transform="matrix(0.010850694444444444,0,0,0.010850694444444444,70.03038194444444,0)" xlink:href="#az"/><use transform="matrix(0.010850694444444444,0,0,0.010850694444444444,82.73654513888889,0)" xlink:href="#aT"/></g><path d="M180 0v-1490h190v1322h690V0H180" id="aU"/><g id="g"><use transform="matrix(0.010850694444444444,0,0,0.010850694444444444,0,0)" xlink:href="#aU"/><use transform="matrix(0.010850694444444444,0,0,0.010850694444444444,12.565104166666666,0)" xlink:href="#aG"/><use transform="matrix(0.010850694444444444,0,0,0.010850694444444444,17.94704861111111,0)" xlink:href="#aN"/><use transform="matrix(0.010850694444444444,0,0,0.010850694444444444,31.07638888888889,0)" xlink:href="#aH"/></g><path d="M593-100v-404H195v-159h398v-403h169v403h398v159H762v404H593" id="aV"/><use transform="matrix(0.010850694444444444,0,0,0.010850694444444444,0,0)" xlink:href="#aV" id="h"/><path d="M98-1322v-168h1126v168H757V0H567v-1322H98" id="aW"/><g id="i"><use transform="matrix(0.010850694444444444,0,0,0.010850694444444444,0,0)" xlink:href="#aW"/><use transform="matrix(0.010850694444444444,0,0,0.010850694444444444,12.608506944444445,0)" xlink:href="#az"/><use transform="matrix(0.010850694444444444,0,0,0.010850694444444444,25.56423611111111,0)" xlink:href="#aO"/><use transform="matrix(0.010850694444444444,0,0,0.010850694444444444,37.29383680555556,0)" xlink:href="#aH"/></g><path d="M180 0v-1490h528c311 0 458 177 458 395 0 191-114 278-244 313v14c139 9 302 137 302 371 0 225-148 397-499 397H180zm190-168h350c232 0 321-102 321-231 0-149-120-277-311-277H370v508zm0-668h328c160 0 286-101 286-255 0-129-87-231-280-231H370v486" id="aX"/><path d="M577 24c-279 0-473-224-473-580 0-354 195-576 474-576 218 0 287 134 324 193h14v-551h180V0H922v-173h-20C865-111 790 24 577 24zm27-161c203 0 314-172 314-421 0-247-108-413-314-413-212 0-317 181-317 413 0 235 108 421 317 421" id="aY"/><g id="j"><use transform="matrix(0.010850694444444444,0,0,0.010850694444444444,0,0)" xlink:href="#aX"/><use transform="matrix(0.010850694444444444,0,0,0.010850694444444444,14.539930555555555,0)" xlink:href="#aJ"/><use transform="matrix(0.010850694444444444,0,0,0.010850694444444444,27.68012152777778,0)" xlink:href="#aG"/><use transform="matrix(0.010850694444444444,0,0,0.010850694444444444,33.06206597222222,0)" xlink:href="#aB"/><use transform="matrix(0.010850694444444444,0,0,0.010850694444444444,38.444010416666664,0)" xlink:href="#aY"/></g><path d="M471 26C259 26 90-98 90-318c0-256 228-303 435-329 202-27 287-16 287-108 0-139-79-219-234-219-161 0-248 86-283 164l-173-57c86-203 278-265 451-265 150 0 419 46 419 395V0H815v-152h-12C765-73 660 26 471 26zm31-159c199 0 310-134 310-271v-155c-30 35-226 55-295 64-131 17-246 59-246 186 0 116 97 176 231 176" id="aZ"/><g id="k"><use transform="matrix(0.010850694444444444,0,0,0.010850694444444444,0,0)" xlink:href="#aQ"/><use transform="matrix(0.010850694444444444,0,0,0.010850694444444444,16.23263888888889,0)" xlink:href="#aC"/><use transform="matrix(0.010850694444444444,0,0,0.010850694444444444,29.557291666666664,0)" xlink:href="#aN"/><use transform="matrix(0.010850694444444444,0,0,0.010850694444444444,42.68663194444444,0)" xlink:href="#aH"/><use transform="matrix(0.010850694444444444,0,0,0.010850694444444444,50.065104166666664,0)" xlink:href="#aZ"/><use transform="matrix(0.010850694444444444,0,0,0.010850694444444444,62.54340277777778,0)" xlink:href="#aG"/><use transform="matrix(0.010850694444444444,0,0,0.010850694444444444,67.92534722222221,0)" xlink:href="#aN"/><use transform="matrix(0.010850694444444444,0,0,0.010850694444444444,81.05468749999999,0)" xlink:href="#az"/><use transform="matrix(0.010850694444444444,0,0,0.010850694444444444,94.01041666666666,0)" xlink:href="#aE"/></g><path d="M158 0v-1118h175l1 205c55-151 181-225 313-225 147 0 245 90 285 228 53-141 190-228 352-228 194 0 352 125 352 384V0h-181v-749c0-161-105-225-225-225-151 0-243 103-243 244V0H807v-767c0-124-93-207-219-207-131 0-250 92-250 270V0H158" id="ba"/><path d="M611 442c-248 0-391-105-460-228l146-94c47 65 117 165 314 165 178 0 307-82 307-266v-224h-17C863-141 792-18 576-18c-268 0-472-195-472-546 0-346 197-568 476-568 216 0 288 133 326 193h17v-179h175V29c0 289-215 413-487 413zm-5-620c203 0 314-146 314-390 0-237-108-403-314-403-213 0-319 180-319 403 0 230 109 390 319 390" id="bb"/><g id="l"><use transform="matrix(0.010850694444444444,0,0,0.010850694444444444,0,0)" xlink:href="#aR"/><use transform="matrix(0.010850694444444444,0,0,0.010850694444444444,5.967881944444445,0)" xlink:href="#ba"/><use transform="matrix(0.010850694444444444,0,0,0.010850694444444444,25.43402777777778,0)" xlink:href="#aZ"/><use transform="matrix(0.010850694444444444,0,0,0.010850694444444444,37.912326388888886,0)" xlink:href="#bb"/><use transform="matrix(0.010850694444444444,0,0,0.010850694444444444,51.54079861111111,0)" xlink:href="#az"/></g><path d="M295 13c-75 0-135-60-135-135s60-135 135-135 135 60 135 135S370 13 295 13zm0-809c-75 0-135-60-135-135s60-135 135-135 135 60 135 135-60 135-135 135" id="bc"/><g id="m"><use transform="matrix(0.010850694444444444,0,0,0.010850694444444444,0,0)" xlink:href="#aW"/><use transform="matrix(0.010850694444444444,0,0,0.010850694444444444,12.71701388888889,0)" xlink:href="#aZ"/><use transform="matrix(0.010850694444444444,0,0,0.010850694444444444,25.1953125,0)" xlink:href="#bb"/><use transform="matrix(0.010850694444444444,0,0,0.010850694444444444,38.82378472222222,0)" xlink:href="#bc"/></g><path d="M338-670V0H158v-1490h180v566c73-149 190-208 336-208 226 0 379 139 379 422V0H872v-695c0-172-96-275-252-275-161 0-282 109-282 300" id="bd"/><path d="M798-719v166H144v-166h654" id="be"/><path d="M174-520v-126l944-476v196L406-588v12l712 338v194" id="bf"/><path d="M1181-520L237-44v-194l712-338v-12L237-926v-196l944 476v126" id="bg"/><g id="n"><use transform="matrix(0.010850694444444444,0,0,0.010850694444444444,0,0)" xlink:href="#aO"/><use transform="matrix(0.010850694444444444,0,0,0.010850694444444444,11.729600694444445,0)" xlink:href="#bd"/><use transform="matrix(0.010850694444444444,0,0,0.010850694444444444,24.869791666666664,0)" xlink:href="#aZ"/><use transform="matrix(0.010850694444444444,0,0,0.010850694444444444,37.34809027777777,0)" xlink:href="#be"/><use transform="matrix(0.010850694444444444,0,0,0.010850694444444444,47.569444444444436,0)" xlink:href="#bf"/><use transform="matrix(0.010850694444444444,0,0,0.010850694444444444,62.27213541666666,0)" xlink:href="#aM"/><use transform="matrix(0.010850694444444444,0,0,0.010850694444444444,74.96744791666666,0)" xlink:href="#aC"/><use transform="matrix(0.010850694444444444,0,0,0.010850694444444444,88.29210069444443,0)" xlink:href="#ba"/><use transform="matrix(0.010850694444444444,0,0,0.010850694444444444,107.75824652777776,0)" xlink:href="#ba"/><use transform="matrix(0.010850694444444444,0,0,0.010850694444444444,127.22439236111109,0)" xlink:href="#aG"/><use transform="matrix(0.010850694444444444,0,0,0.010850694444444444,132.60633680555554,0)" xlink:href="#aH"/><use transform="matrix(0.010850694444444444,0,0,0.010850694444444444,139.87630208333331,0)" xlink:href="#bg"/></g><path d="M180 0v-1490h190c0 262 1 526-3 784 217-279 467-523 702-784h249L716-845 1319 0h-225L585-716 370-489V0H180" id="bh"/><g id="o"><use transform="matrix(0.01953125,0,0,0.01953125,0,0)" xlink:href="#bh"/><use transform="matrix(0.01953125,0,0,0.01953125,25.52734375,0)" xlink:href="#aJ"/><use transform="matrix(0.01953125,0,0,0.01953125,49.1796875,0)" xlink:href="#aK"/><use transform="matrix(0.01953125,0,0,0.01953125,73.671875,0)" xlink:href="#az"/><use transform="matrix(0.01953125,0,0,0.01953125,96.9921875,0)" xlink:href="#aE"/><use transform="matrix(0.01953125,0,0,0.01953125,112.67578125,0)" xlink:href="#aN"/><use transform="matrix(0.01953125,0,0,0.01953125,136.30859375,0)" xlink:href="#az"/><use transform="matrix(0.01953125,0,0,0.01953125,159.62890625,0)" xlink:href="#aH"/><use transform="matrix(0.01953125,0,0,0.01953125,172.32421875,0)" xlink:href="#az"/><use transform="matrix(0.01953125,0,0,0.01953125,195.64453125,0)" xlink:href="#aO"/></g><g id="p"><use transform="matrix(0.01953125,0,0,0.01953125,0,0)" xlink:href="#aQ"/><use transform="matrix(0.01953125,0,0,0.01953125,29.21875,0)" xlink:href="#aB"/><use transform="matrix(0.01953125,0,0,0.01953125,38.90625,0)" xlink:href="#aJ"/><use transform="matrix(0.01953125,0,0,0.01953125,62.55859375,0)" xlink:href="#aO"/><use transform="matrix(0.01953125,0,0,0.01953125,83.671875,0)" xlink:href="#aH"/><use transform="matrix(0.01953125,0,0,0.01953125,96.3671875,0)" xlink:href="#az"/><use transform="matrix(0.01953125,0,0,0.01953125,119.6875,0)" xlink:href="#aE"/></g><g id="q"><use transform="matrix(0.010850694444444444,0,0,0.010850694444444444,0,0)" xlink:href="#aF"/><use transform="matrix(0.010850694444444444,0,0,0.010850694444444444,16.57986111111111,0)" xlink:href="#aG"/><use transform="matrix(0.010850694444444444,0,0,0.010850694444444444,21.961805555555557,0)" xlink:href="#aH"/></g><g id="r"><use transform="matrix(0.010850694444444444,0,0,0.010850694444444444,0,0)" xlink:href="#aS"/><use transform="matrix(0.010850694444444444,0,0,0.010850694444444444,14.192708333333332,0)" xlink:href="#aJ"/><use transform="matrix(0.010850694444444444,0,0,0.010850694444444444,27.332899305555554,0)" xlink:href="#aO"/><use transform="matrix(0.010850694444444444,0,0,0.010850694444444444,39.0625,0)" xlink:href="#bd"/></g><path d="M180 0v-1490h510c348 0 508 194 508 460 0 198-88 351-276 417L1256 0h-220L726-579c-117 2-238 0-356 1V0H180zm190-747h312c235 0 327-108 327-283 0-177-92-293-329-293H370v576" id="bi"/><path d="M140 405l46-156c120 36 205 19 263-150l32-93L54-1118h197c107 313 237 620 324 950 87-331 219-637 326-950h196L606 167c-68 178-176 259-334 259-64 0-113-12-132-21" id="bj"/><g id="s"><use transform="matrix(0.010850694444444444,0,0,0.010850694444444444,0,0)" xlink:href="#bi"/><use transform="matrix(0.010850694444444444,0,0,0.010850694444444444,13.975694444444445,0)" xlink:href="#az"/><use transform="matrix(0.010850694444444444,0,0,0.010850694444444444,26.931423611111104,0)" xlink:href="#aD"/><use transform="matrix(0.010850694444444444,0,0,0.010850694444444444,40.53819444444444,0)" xlink:href="#aC"/><use transform="matrix(0.010850694444444444,0,0,0.010850694444444444,53.86284722222222,0)" xlink:href="#aO"/><use transform="matrix(0.010850694444444444,0,0,0.010850694444444444,65.59244791666667,0)" xlink:href="#aG"/><use transform="matrix(0.010850694444444444,0,0,0.010850694444444444,70.97439236111111,0)" xlink:href="#aH"/><use transform="matrix(0.010850694444444444,0,0,0.010850694444444444,78.02734375,0)" xlink:href="#aC"/><use transform="matrix(0.010850694444444444,0,0,0.010850694444444444,91.35199652777777,0)" xlink:href="#aE"/><use transform="matrix(0.010850694444444444,0,0,0.010850694444444444,100.06510416666666,0)" xlink:href="#bj"/></g><path d="M678-1118v154H420V0H240v-964H20v-154h220v-149c0-194 155-293 318-293 85 0 141 18 168 30l-50 154c-19-6-47-17-97-17-111 0-159 58-159 166v109h258" id="bk"/><g id="t"><use transform="matrix(0.01953125,0,0,0.01953125,0,0)" xlink:href="#aL"/><use transform="matrix(0.01953125,0,0,0.01953125,27.59765625,0)" xlink:href="#aE"/><use transform="matrix(0.01953125,0,0,0.01953125,43.28125,0)" xlink:href="#aH"/><use transform="matrix(0.01953125,0,0,0.01953125,56.3671875,0)" xlink:href="#aG"/><use transform="matrix(0.01953125,0,0,0.01953125,66.0546875,0)" xlink:href="#bk"/><use transform="matrix(0.01953125,0,0,0.01953125,80.234375,0)" xlink:href="#aZ"/><use transform="matrix(0.01953125,0,0,0.01953125,102.6953125,0)" xlink:href="#aM"/><use transform="matrix(0.01953125,0,0,0.01953125,125.546875,0)" xlink:href="#aH"/></g><g id="u"><use transform="matrix(0.01953125,0,0,0.01953125,0,0)" xlink:href="#bi"/><use transform="matrix(0.01953125,0,0,0.01953125,25.15625,0)" xlink:href="#az"/><use transform="matrix(0.01953125,0,0,0.01953125,48.4765625,0)" xlink:href="#bb"/><use transform="matrix(0.01953125,0,0,0.01953125,73.0078125,0)" xlink:href="#aG"/><use transform="matrix(0.01953125,0,0,0.01953125,82.6953125,0)" xlink:href="#aO"/><use transform="matrix(0.01953125,0,0,0.01953125,103.80859375,0)" xlink:href="#aH"/><use transform="matrix(0.01953125,0,0,0.01953125,116.89453125,0)" xlink:href="#aE"/><use transform="matrix(0.01953125,0,0,0.01953125,132.578125,0)" xlink:href="#bj"/></g><g id="v"><use transform="matrix(0.010850694444444444,0,0,0.010850694444444444,0,0)" xlink:href="#aQ"/><use transform="matrix(0.010850694444444444,0,0,0.010850694444444444,16.23263888888889,0)" xlink:href="#aC"/><use transform="matrix(0.010850694444444444,0,0,0.010850694444444444,29.557291666666664,0)" xlink:href="#aN"/><use transform="matrix(0.010850694444444444,0,0,0.010850694444444444,42.68663194444444,0)" xlink:href="#aH"/><use transform="matrix(0.010850694444444444,0,0,0.010850694444444444,50.065104166666664,0)" xlink:href="#aZ"/><use transform="matrix(0.010850694444444444,0,0,0.010850694444444444,62.54340277777778,0)" xlink:href="#aG"/><use transform="matrix(0.010850694444444444,0,0,0.010850694444444444,67.92534722222221,0)" xlink:href="#aN"/><use transform="matrix(0.010850694444444444,0,0,0.010850694444444444,81.05468749999999,0)" xlink:href="#az"/><use transform="matrix(0.010850694444444444,0,0,0.010850694444444444,94.01041666666666,0)" xlink:href="#aE"/></g><g id="w"><use transform="matrix(0.010850694444444444,0,0,0.010850694444444444,0,0)" xlink:href="#bi"/><use transform="matrix(0.010850694444444444,0,0,0.010850694444444444,13.975694444444445,0)" xlink:href="#az"/><use transform="matrix(0.010850694444444444,0,0,0.010850694444444444,26.931423611111104,0)" xlink:href="#bb"/><use transform="matrix(0.010850694444444444,0,0,0.010850694444444444,40.55989583333333,0)" xlink:href="#aG"/><use transform="matrix(0.010850694444444444,0,0,0.010850694444444444,45.94184027777778,0)" xlink:href="#aO"/><use transform="matrix(0.010850694444444444,0,0,0.010850694444444444,57.67144097222221,0)" xlink:href="#aH"/><use transform="matrix(0.010850694444444444,0,0,0.010850694444444444,64.94140624999999,0)" xlink:href="#aE"/><use transform="matrix(0.010850694444444444,0,0,0.010850694444444444,73.65451388888889,0)" xlink:href="#bj"/></g><g id="x"><use transform="matrix(0.010850694444444444,0,0,0.010850694444444444,0,0)" xlink:href="#aP"/><use transform="matrix(0.010850694444444444,0,0,0.010850694444444444,8.10546875,0)" xlink:href="#aF"/><use transform="matrix(0.010850694444444444,0,0,0.010850694444444444,24.68532986111111,0)" xlink:href="#aI"/><use transform="matrix(0.010850694444444444,0,0,0.010850694444444444,41.20008680555556,0)" xlink:href="#aQ"/><use transform="matrix(0.010850694444444444,0,0,0.010850694444444444,57.43272569444444,0)" xlink:href="#bi"/><use transform="matrix(0.010850694444444444,0,0,0.010850694444444444,71.73394097222221,0)" xlink:href="#aT"/></g><path d="M657 26c-323 0-524-166-541-416h195c15 169 171 246 346 246 202 0 356-106 356-265 5-203-294-238-475-293-239-73-380-191-380-389 0-252 224-419 512-419 294 0 499 171 508 396H992c-17-145-151-228-328-228-193 0-321 102-321 242 0 156 175 211 284 241l149 41c160 44 422 134 422 412 0 244-197 432-541 432" id="bl"/><path d="M65 0l393-574-370-544h210c88 136 192 297 267 435 67-142 176-302 264-435h206L661-564 1053 0H844c-94-144-206-310-287-458C484-308 366-142 273 0H65" id="bm"/><g id="y"><use transform="matrix(0.010850694444444444,0,0,0.010850694444444444,0,0)" xlink:href="#bl"/><use transform="matrix(0.010850694444444444,0,0,0.010850694444444444,14.2578125,0)" xlink:href="#bd"/><use transform="matrix(0.010850694444444444,0,0,0.010850694444444444,27.39800347222222,0)" xlink:href="#aZ"/><use transform="matrix(0.010850694444444444,0,0,0.010850694444444444,39.87630208333333,0)" xlink:href="#be"/><use transform="matrix(0.010850694444444444,0,0,0.010850694444444444,49.59852430555556,0)" xlink:href="#bm"/><use transform="matrix(0.010850694444444444,0,0,0.010850694444444444,61.72960069444444,0)" xlink:href="#bm"/><use transform="matrix(0.010850694444444444,0,0,0.010850694444444444,73.86067708333333,0)" xlink:href="#bm"/><use transform="matrix(0.010850694444444444,0,0,0.010850694444444444,85.99175347222221,0)" xlink:href="#bm"/><use transform="matrix(0.010850694444444444,0,0,0.010850694444444444,98.12282986111111,0)" xlink:href="#bm"/></g><path d="M653-1490V0H466v-1314h-10L96-1047v-204l324-239h233" id="bn"/><path d="M295 13c-75 0-135-60-135-135s60-135 135-135 135 60 135 135S370 13 295 13" id="bo"/><path d="M646 20c-332 0-524-278-524-764 0-483 194-766 524-766s524 283 524 766c0 485-191 764-524 764zm0-166c218 0 341-220 341-598 0-380-123-601-341-601s-341 222-341 601c0 378 123 598 341 598" id="bp"/><g id="z"><use transform="matrix(0.010850694444444444,0,0,0.010850694444444444,0,0)" xlink:href="#aA"/><use transform="matrix(0.010850694444444444,0,0,0.010850694444444444,12.489149305555555,0)" xlink:href="#bn"/><use transform="matrix(0.010850694444444444,0,0,0.010850694444444444,21.52777777777778,0)" xlink:href="#bo"/><use transform="matrix(0.010850694444444444,0,0,0.010850694444444444,27.36545138888889,0)" xlink:href="#bp"/><use transform="matrix(0.010850694444444444,0,0,0.010850694444444444,40.8203125,0)" xlink:href="#bo"/><use transform="matrix(0.010850694444444444,0,0,0.010850694444444444,46.65798611111111,0)" xlink:href="#bp"/></g><g id="A"><use transform="matrix(0.010850694444444444,0,0,0.010850694444444444,0,0)" xlink:href="#aP"/><use transform="matrix(0.010850694444444444,0,0,0.010850694444444444,8.10546875,0)" xlink:href="#aE"/><use transform="matrix(0.010850694444444444,0,0,0.010850694444444444,16.102430555555557,0)" xlink:href="#az"/><use transform="matrix(0.010850694444444444,0,0,0.010850694444444444,29.05815972222222,0)" xlink:href="#aB"/><use transform="matrix(0.010850694444444444,0,0,0.010850694444444444,34.440104166666664,0)" xlink:href="#az"/><use transform="matrix(0.010850694444444444,0,0,0.010850694444444444,47.61284722222221,0)" xlink:href="#aZ"/><use transform="matrix(0.010850694444444444,0,0,0.010850694444444444,60.09114583333333,0)" xlink:href="#aO"/><use transform="matrix(0.010850694444444444,0,0,0.010850694444444444,71.82074652777777,0)" xlink:href="#az"/><use transform="matrix(0.010850694444444444,0,0,0.010850694444444444,84.52690972222221,0)" xlink:href="#aT"/></g><g id="B"><use transform="matrix(0.010850694444444444,0,0,0.010850694444444444,0,0)" xlink:href="#aS"/><use transform="matrix(0.010850694444444444,0,0,0.010850694444444444,14.192708333333332,0)" xlink:href="#aJ"/><use transform="matrix(0.010850694444444444,0,0,0.010850694444444444,27.332899305555554,0)" xlink:href="#aO"/><use transform="matrix(0.010850694444444444,0,0,0.010850694444444444,39.0625,0)" xlink:href="#bd"/></g><g id="C"><use transform="matrix(0.010850694444444444,0,0,0.010850694444444444,0,0)" xlink:href="#aQ"/><use transform="matrix(0.010850694444444444,0,0,0.010850694444444444,16.23263888888889,0)" xlink:href="#aC"/><use transform="matrix(0.010850694444444444,0,0,0.010850694444444444,29.557291666666664,0)" xlink:href="#aN"/><use transform="matrix(0.010850694444444444,0,0,0.010850694444444444,42.68663194444444,0)" xlink:href="#aH"/><use transform="matrix(0.010850694444444444,0,0,0.010850694444444444,50.065104166666664,0)" xlink:href="#aZ"/><use transform="matrix(0.010850694444444444,0,0,0.010850694444444444,62.54340277777778,0)" xlink:href="#aG"/><use transform="matrix(0.010850694444444444,0,0,0.010850694444444444,67.92534722222221,0)" xlink:href="#aN"/><use transform="matrix(0.010850694444444444,0,0,0.010850694444444444,81.05468749999999,0)" xlink:href="#az"/><use transform="matrix(0.010850694444444444,0,0,0.010850694444444444,94.01041666666666,0)" xlink:href="#aE"/></g><g id="D"><use transform="matrix(0.010850694444444444,0,0,0.010850694444444444,0,0)" xlink:href="#aR"/><use transform="matrix(0.010850694444444444,0,0,0.010850694444444444,5.967881944444445,0)" xlink:href="#ba"/><use transform="matrix(0.010850694444444444,0,0,0.010850694444444444,25.43402777777778,0)" xlink:href="#aZ"/><use transform="matrix(0.010850694444444444,0,0,0.010850694444444444,37.912326388888886,0)" xlink:href="#bb"/><use transform="matrix(0.010850694444444444,0,0,0.010850694444444444,51.54079861111111,0)" xlink:href="#az"/></g><g id="E"><use transform="matrix(0.010850694444444444,0,0,0.010850694444444444,0,0)" xlink:href="#aL"/><use transform="matrix(0.010850694444444444,0,0,0.010850694444444444,15.33203125,0)" xlink:href="#aE"/><use transform="matrix(0.010850694444444444,0,0,0.010850694444444444,23.328993055555554,0)" xlink:href="#bb"/><use transform="matrix(0.010850694444444444,0,0,0.010850694444444444,36.95746527777778,0)" xlink:href="#aC"/><use transform="matrix(0.010850694444444444,0,0,0.010850694444444444,50.28211805555556,0)" xlink:href="#aQ"/><use transform="matrix(0.010850694444444444,0,0,0.010850694444444444,66.51475694444444,0)" xlink:href="#ay"/></g><path d="M180 0v-1490h224l606 953c40 63 108 177 176 312-27-437-7-821-13-1265h190V0h-226C860-448 622-778 356-1262c27 476 11 792 15 1262H180" id="bq"/><g id="F"><use transform="matrix(0.010850694444444444,0,0,0.010850694444444444,0,0)" xlink:href="#bq"/><use transform="matrix(0.010850694444444444,0,0,0.010850694444444444,16.74262152777778,0)" xlink:href="#aZ"/><use transform="matrix(0.010850694444444444,0,0,0.010850694444444444,29.22092013888889,0)" xlink:href="#ba"/><use transform="matrix(0.010850694444444444,0,0,0.010850694444444444,48.68706597222222,0)" xlink:href="#az"/><use transform="matrix(0.010850694444444444,0,0,0.010850694444444444,61.642795138888886,0)" xlink:href="#aO"/><use transform="matrix(0.010850694444444444,0,0,0.010850694444444444,73.37239583333333,0)" xlink:href="#aD"/><use transform="matrix(0.010850694444444444,0,0,0.010850694444444444,87.19618055555554,0)" xlink:href="#aZ"/><use transform="matrix(0.010850694444444444,0,0,0.010850694444444444,99.67447916666666,0)" xlink:href="#aM"/><use transform="matrix(0.010850694444444444,0,0,0.010850694444444444,112.36979166666666,0)" xlink:href="#az"/></g><g id="G"><use transform="matrix(0.010850694444444444,0,0,0.010850694444444444,0,0)" xlink:href="#aS"/><use transform="matrix(0.010850694444444444,0,0,0.010850694444444444,14.192708333333332,0)" xlink:href="#aE"/><use transform="matrix(0.010850694444444444,0,0,0.010850694444444444,22.189670138888886,0)" xlink:href="#aC"/><use transform="matrix(0.010850694444444444,0,0,0.010850694444444444,35.514322916666664,0)" xlink:href="#aY"/><use transform="matrix(0.010850694444444444,0,0,0.010850694444444444,49.12109375,0)" xlink:href="#aJ"/><use transform="matrix(0.010850694444444444,0,0,0.010850694444444444,62.26128472222222,0)" xlink:href="#aM"/><use transform="matrix(0.010850694444444444,0,0,0.010850694444444444,74.95659722222223,0)" xlink:href="#aH"/><use transform="matrix(0.010850694444444444,0,0,0.010850694444444444,82.2265625,0)" xlink:href="#aG"/><use transform="matrix(0.010850694444444444,0,0,0.010850694444444444,87.60850694444444,0)" xlink:href="#aC"/><use transform="matrix(0.010850694444444444,0,0,0.010850694444444444,100.93315972222221,0)" xlink:href="#aN"/></g><path d="M158 0v-1490h180v865h22l478-493h223L593-638 1096 0H865L456-523 338-412V0H158" id="br"/><g id="H"><use transform="matrix(0.010850694444444444,0,0,0.010850694444444444,0,0)" xlink:href="#aW"/><use transform="matrix(0.010850694444444444,0,0,0.010850694444444444,13.0859375,0)" xlink:href="#aE"/><use transform="matrix(0.010850694444444444,0,0,0.010850694444444444,21.451822916666664,0)" xlink:href="#aZ"/><use transform="matrix(0.010850694444444444,0,0,0.010850694444444444,33.93012152777777,0)" xlink:href="#aM"/><use transform="matrix(0.010850694444444444,0,0,0.010850694444444444,46.62543402777778,0)" xlink:href="#br"/><use transform="matrix(0.010850694444444444,0,0,0.010850694444444444,58.82161458333333,0)" xlink:href="#aO"/></g><g id="I"><use transform="matrix(0.010850694444444444,0,0,0.010850694444444444,0,0)" xlink:href="#aE"/><use transform="matrix(0.010850694444444444,0,0,0.010850694444444444,7.996961805555555,0)" xlink:href="#az"/><use transform="matrix(0.010850694444444444,0,0,0.010850694444444444,20.95269097222222,0)" xlink:href="#aB"/><use transform="matrix(0.010850694444444444,0,0,0.010850694444444444,26.334635416666664,0)" xlink:href="#az"/><use transform="matrix(0.010850694444444444,0,0,0.010850694444444444,39.50737847222222,0)" xlink:href="#aZ"/><use transform="matrix(0.010850694444444444,0,0,0.010850694444444444,51.98567708333333,0)" xlink:href="#aO"/><use transform="matrix(0.010850694444444444,0,0,0.010850694444444444,63.71527777777778,0)" xlink:href="#az"/></g><g id="J"><use transform="matrix(0.010850694444444444,0,0,0.010850694444444444,0,0)" xlink:href="#aK"/><use transform="matrix(0.010850694444444444,0,0,0.010850694444444444,13.606770833333332,0)" xlink:href="#aE"/><use transform="matrix(0.010850694444444444,0,0,0.010850694444444444,21.97265625,0)" xlink:href="#aZ"/><use transform="matrix(0.010850694444444444,0,0,0.010850694444444444,34.450954861111114,0)" xlink:href="#aN"/><use transform="matrix(0.010850694444444444,0,0,0.010850694444444444,47.5802951388889,0)" xlink:href="#aM"/><use transform="matrix(0.010850694444444444,0,0,0.010850694444444444,60.2756076388889,0)" xlink:href="#bd"/></g><path d="M180 0v-1490h270l367 940c28 72 75 218 110 339 35-117 81-264 110-339l362-940h271V0h-187c2-448-5-837 7-1287-157 497-311 829-483 1287H842C666-458 514-784 354-1284c12 438 5 843 7 1284H180" id="bs"/><g id="K"><use transform="matrix(0.010850694444444444,0,0,0.010850694444444444,0,0)" xlink:href="#bs"/><use transform="matrix(0.010850694444444444,0,0,0.010850694444444444,20.07378472222222,0)" xlink:href="#aZ"/><use transform="matrix(0.010850694444444444,0,0,0.010850694444444444,32.55208333333333,0)" xlink:href="#aN"/><use transform="matrix(0.010850694444444444,0,0,0.010850694444444444,45.68142361111111,0)" xlink:href="#aJ"/><use transform="matrix(0.010850694444444444,0,0,0.010850694444444444,58.82161458333333,0)" xlink:href="#aZ"/><use transform="matrix(0.010850694444444444,0,0,0.010850694444444444,71.29991319444444,0)" xlink:href="#aB"/></g><g id="L"><use transform="matrix(0.010850694444444444,0,0,0.010850694444444444,0,0)" xlink:href="#aD"/><use transform="matrix(0.010850694444444444,0,0,0.010850694444444444,13.606770833333332,0)" xlink:href="#aE"/><use transform="matrix(0.010850694444444444,0,0,0.010850694444444444,21.603732638888886,0)" xlink:href="#aC"/><use transform="matrix(0.010850694444444444,0,0,0.010850694444444444,34.928385416666664,0)" xlink:href="#ba"/><use transform="matrix(0.010850694444444444,0,0,0.010850694444444444,54.39453125,0)" xlink:href="#aC"/><use transform="matrix(0.010850694444444444,0,0,0.010850694444444444,67.71918402777777,0)" xlink:href="#aH"/><use transform="matrix(0.010850694444444444,0,0,0.010850694444444444,74.98914930555554,0)" xlink:href="#aG"/><use transform="matrix(0.010850694444444444,0,0,0.010850694444444444,80.37109374999999,0)" xlink:href="#aC"/><use transform="matrix(0.010850694444444444,0,0,0.010850694444444444,93.69574652777776,0)" xlink:href="#aN"/></g><path d="M763 24c-353 0-583-224-583-531v-983h190v968c0 214 149 370 393 370 243 0 391-156 391-370v-968h190v983c0 307-230 531-581 531" id="bt"/><g id="M"><use transform="matrix(0.010850694444444444,0,0,0.010850694444444444,0,0)" xlink:href="#bt"/><use transform="matrix(0.010850694444444444,0,0,0.010850694444444444,16.536458333333332,0)" xlink:href="#aO"/><use transform="matrix(0.010850694444444444,0,0,0.010850694444444444,28.266059027777775,0)" xlink:href="#az"/><use transform="matrix(0.010850694444444444,0,0,0.010850694444444444,41.22178819444444,0)" xlink:href="#aO"/></g><path d="M57 0l534-763-501-727h220c122 187 296 416 391 605 94-191 272-419 396-605h215L811-770 1340 0h-219C986-204 811-426 699-640 588-430 407-202 273 0H57" id="bu"/><path d="M600 0v-610L52-1490h220l295 481c50 82 90 150 130 243 40-96 80-164 128-243l294-481h219L790-610V0H600" id="bv"/><path d="M130 0v-134l666-991c45-67 96-135 147-202-269 9-546 3-821 5v-168h1036v136L502-379c-49 72-103 145-157 216 268-9 546-3 821-5V0H130" id="bw"/><g id="N"><use transform="matrix(0.010850694444444444,0,0,0.010850694444444444,0,0)" xlink:href="#aA"/><use transform="matrix(0.010850694444444444,0,0,0.010850694444444444,12.489149305555555,0)" xlink:href="#bu"/><use transform="matrix(0.010850694444444444,0,0,0.010850694444444444,27.647569444444443,0)" xlink:href="#bo"/><use transform="matrix(0.010850694444444444,0,0,0.010850694444444444,33.30078125,0)" xlink:href="#bv"/><use transform="matrix(0.010850694444444444,0,0,0.010850694444444444,47.63454861111111,0)" xlink:href="#bo"/><use transform="matrix(0.010850694444444444,0,0,0.010850694444444444,54.03645833333333,0)" xlink:href="#bw"/></g><g id="O"><use transform="matrix(0.010850694444444444,0,0,0.010850694444444444,0,0)" xlink:href="#aH"/><use transform="matrix(0.010850694444444444,0,0,0.010850694444444444,7.378472222222222,0)" xlink:href="#aZ"/><use transform="matrix(0.010850694444444444,0,0,0.010850694444444444,19.856770833333332,0)" xlink:href="#bb"/><use transform="matrix(0.010850694444444444,0,0,0.010850694444444444,33.48524305555556,0)" xlink:href="#aO"/></g><g id="P"><use transform="matrix(0.010850694444444444,0,0,0.010850694444444444,0,0)" xlink:href="#aS"/><use transform="matrix(0.010850694444444444,0,0,0.010850694444444444,14.192708333333332,0)" xlink:href="#bi"/></g><g id="Q"><use transform="matrix(0.010850694444444444,0,0,0.010850694444444444,0,0)" xlink:href="#aJ"/><use transform="matrix(0.010850694444444444,0,0,0.010850694444444444,13.140190972222221,0)" xlink:href="#aD"/><use transform="matrix(0.010850694444444444,0,0,0.010850694444444444,26.746961805555554,0)" xlink:href="#aY"/><use transform="matrix(0.010850694444444444,0,0,0.010850694444444444,40.353732638888886,0)" xlink:href="#aZ"/><use transform="matrix(0.010850694444444444,0,0,0.010850694444444444,52.83203125,0)" xlink:href="#aH"/><use transform="matrix(0.010850694444444444,0,0,0.010850694444444444,59.8849826388889,0)" xlink:href="#az"/><use transform="matrix(0.010850694444444444,0,0,0.010850694444444444,72.84071180555556,0)" xlink:href="#aO"/></g><g id="R"><use transform="matrix(0.010850694444444444,0,0,0.010850694444444444,0,0)" xlink:href="#aG"/><use transform="matrix(0.010850694444444444,0,0,0.010850694444444444,5.381944444444445,0)" xlink:href="#ba"/><use transform="matrix(0.010850694444444444,0,0,0.010850694444444444,24.84809027777778,0)" xlink:href="#aZ"/><use transform="matrix(0.010850694444444444,0,0,0.010850694444444444,37.326388888888886,0)" xlink:href="#bb"/><use transform="matrix(0.010850694444444444,0,0,0.010850694444444444,50.95486111111111,0)" xlink:href="#az"/></g><g id="S"><use transform="matrix(0.010850694444444444,0,0,0.010850694444444444,0,0)" xlink:href="#aH"/><use transform="matrix(0.010850694444444444,0,0,0.010850694444444444,7.378472222222222,0)" xlink:href="#aZ"/><use transform="matrix(0.010850694444444444,0,0,0.010850694444444444,19.856770833333332,0)" xlink:href="#bb"/></g><g id="T"><use transform="matrix(0.010850694444444444,0,0,0.010850694444444444,0,0)" xlink:href="#aG"/><use transform="matrix(0.010850694444444444,0,0,0.010850694444444444,5.381944444444445,0)" xlink:href="#aN"/></g><path d="M692-1560L212 224H46l480-1784h166" id="bx"/><g id="U"><use transform="matrix(0.010850694444444444,0,0,0.010850694444444444,0,0)" xlink:href="#aC"/><use transform="matrix(0.010850694444444444,0,0,0.010850694444444444,12.890624999999996,0)" xlink:href="#aA"/><use transform="matrix(0.010850694444444444,0,0,0.010850694444444444,24.94574652777778,0)" xlink:href="#az"/><use transform="matrix(0.010850694444444444,0,0,0.010850694444444444,37.90147569444444,0)" xlink:href="#aE"/><use transform="matrix(0.010850694444444444,0,0,0.010850694444444444,46.61458333333333,0)" xlink:href="#aB"/><use transform="matrix(0.010850694444444444,0,0,0.010850694444444444,51.99652777777778,0)" xlink:href="#aZ"/><use transform="matrix(0.010850694444444444,0,0,0.010850694444444444,64.14930555555554,0)" xlink:href="#bj"/><use transform="matrix(0.010850694444444444,0,0,0.010850694444444444,76.6384548611111,0)" xlink:href="#aO"/><use transform="matrix(0.010850694444444444,0,0,0.010850694444444444,88.36805555555554,0)" xlink:href="#bx"/><use transform="matrix(0.010850694444444444,0,0,0.010850694444444444,96.37586805555556,0)" xlink:href="#aD"/><use transform="matrix(0.010850694444444444,0,0,0.010850694444444444,109.98263888888887,0)" xlink:href="#aE"/><use transform="matrix(0.010850694444444444,0,0,0.010850694444444444,117.97960069444441,0)" xlink:href="#aC"/><use transform="matrix(0.010850694444444444,0,0,0.010850694444444444,131.3042534722222,0)" xlink:href="#aY"/></g><g id="V"><use transform="matrix(0.010850694444444444,0,0,0.010850694444444444,0,0)" xlink:href="#aP"/><use transform="matrix(0.010850694444444444,0,0,0.010850694444444444,8.10546875,0)" xlink:href="#ba"/><use transform="matrix(0.010850694444444444,0,0,0.010850694444444444,27.571614583333332,0)" xlink:href="#az"/><use transform="matrix(0.010850694444444444,0,0,0.010850694444444444,40.52734375,0)" xlink:href="#aE"/><use transform="matrix(0.010850694444444444,0,0,0.010850694444444444,48.52430555555556,0)" xlink:href="#bb"/><use transform="matrix(0.010850694444444444,0,0,0.010850694444444444,62.15277777777778,0)" xlink:href="#az"/></g><path d="M226-283v-166h904v166H226zm0-434v-166h904v166H226" id="by"/><use transform="matrix(0.010850694444444444,0,0,0.010850694444444444,0,0)" xlink:href="#by" id="W"/><g id="X"><use transform="matrix(0.010850694444444444,0,0,0.010850694444444444,0,0)" xlink:href="#aD"/><use transform="matrix(0.010850694444444444,0,0,0.010850694444444444,13.606770833333332,0)" xlink:href="#aE"/><use transform="matrix(0.010850694444444444,0,0,0.010850694444444444,21.603732638888886,0)" xlink:href="#aC"/><use transform="matrix(0.010850694444444444,0,0,0.010850694444444444,34.928385416666664,0)" xlink:href="#aY"/><use transform="matrix(0.010850694444444444,0,0,0.010850694444444444,48.53515625,0)" xlink:href="#aJ"/><use transform="matrix(0.010850694444444444,0,0,0.010850694444444444,61.67534722222222,0)" xlink:href="#aM"/><use transform="matrix(0.010850694444444444,0,0,0.010850694444444444,74.37065972222223,0)" xlink:href="#aH"/><use transform="matrix(0.010850694444444444,0,0,0.010850694444444444,81.640625,0)" xlink:href="#aG"/><use transform="matrix(0.010850694444444444,0,0,0.010850694444444444,87.02256944444444,0)" xlink:href="#aC"/><use transform="matrix(0.010850694444444444,0,0,0.010850694444444444,100.34722222222221,0)" xlink:href="#aN"/><use transform="matrix(0.010850694444444444,0,0,0.010850694444444444,113.47656249999997,0)" xlink:href="#aT"/></g><g id="Y"><use transform="matrix(0.010850694444444444,0,0,0.010850694444444444,0,0)" xlink:href="#bl"/><use transform="matrix(0.010850694444444444,0,0,0.010850694444444444,14.2578125,0)" xlink:href="#aH"/><use transform="matrix(0.010850694444444444,0,0,0.010850694444444444,21.63628472222222,0)" xlink:href="#aZ"/><use transform="matrix(0.010850694444444444,0,0,0.010850694444444444,34.11458333333333,0)" xlink:href="#bb"/><use transform="matrix(0.010850694444444444,0,0,0.010850694444444444,47.74305555555556,0)" xlink:href="#aG"/><use transform="matrix(0.010850694444444444,0,0,0.010850694444444444,53.124999999999986,0)" xlink:href="#aN"/><use transform="matrix(0.010850694444444444,0,0,0.010850694444444444,66.25434027777777,0)" xlink:href="#bb"/></g><g id="Z"><use transform="matrix(0.010850694444444444,0,0,0.010850694444444444,0,0)" xlink:href="#aL"/><use transform="matrix(0.010850694444444444,0,0,0.010850694444444444,15.33203125,0)" xlink:href="#aJ"/><use transform="matrix(0.010850694444444444,0,0,0.010850694444444444,28.47222222222222,0)" xlink:href="#aH"/><use transform="matrix(0.010850694444444444,0,0,0.010850694444444444,35.52517361111111,0)" xlink:href="#aC"/><use transform="matrix(0.010850694444444444,0,0,0.010850694444444444,48.849826388888886,0)" xlink:href="#be"/><use transform="matrix(0.010850694444444444,0,0,0.010850694444444444,59.07118055555555,0)" xlink:href="#aO"/><use transform="matrix(0.010850694444444444,0,0,0.010850694444444444,70.80078125,0)" xlink:href="#bj"/><use transform="matrix(0.010850694444444444,0,0,0.010850694444444444,83.28993055555556,0)" xlink:href="#aN"/><use transform="matrix(0.010850694444444444,0,0,0.010850694444444444,96.41927083333333,0)" xlink:href="#aM"/></g><g id="aa"><use transform="matrix(0.010850694444444444,0,0,0.010850694444444444,0,0)" xlink:href="#az"/><use transform="matrix(0.010850694444444444,0,0,0.010850694444444444,12.955729166666666,0)" xlink:href="#aN"/><use transform="matrix(0.010850694444444444,0,0,0.010850694444444444,26.085069444444443,0)" xlink:href="#aZ"/><use transform="matrix(0.010850694444444444,0,0,0.010850694444444444,38.56336805555556,0)" xlink:href="#aK"/><use transform="matrix(0.010850694444444444,0,0,0.010850694444444444,52.170138888888886,0)" xlink:href="#aB"/><use transform="matrix(0.010850694444444444,0,0,0.010850694444444444,57.55208333333333,0)" xlink:href="#az"/><use transform="matrix(0.010850694444444444,0,0,0.010850694444444444,70.5078125,0)" xlink:href="#aY"/></g><g id="ab"><use transform="matrix(0.010850694444444444,0,0,0.010850694444444444,0,0)" xlink:href="#aW"/><use transform="matrix(0.010850694444444444,0,0,0.010850694444444444,13.0859375,0)" xlink:href="#aE"/><use transform="matrix(0.010850694444444444,0,0,0.010850694444444444,21.451822916666664,0)" xlink:href="#aZ"/><use transform="matrix(0.010850694444444444,0,0,0.010850694444444444,33.93012152777777,0)" xlink:href="#aM"/><use transform="matrix(0.010850694444444444,0,0,0.010850694444444444,46.62543402777778,0)" xlink:href="#br"/><use transform="matrix(0.010850694444444444,0,0,0.010850694444444444,58.82161458333333,0)" xlink:href="#aO"/></g><g id="ac"><use transform="matrix(0.010850694444444444,0,0,0.010850694444444444,0,0)" xlink:href="#ba"/><use transform="matrix(0.010850694444444444,0,0,0.010850694444444444,19.466145833333332,0)" xlink:href="#aZ"/><use transform="matrix(0.010850694444444444,0,0,0.010850694444444444,31.944444444444443,0)" xlink:href="#aG"/><use transform="matrix(0.010850694444444444,0,0,0.010850694444444444,37.326388888888886,0)" xlink:href="#aN"/></g><g id="ad"><use transform="matrix(0.010850694444444444,0,0,0.010850694444444444,0,0)" xlink:href="#bl"/><use transform="matrix(0.010850694444444444,0,0,0.010850694444444444,14.2578125,0)" xlink:href="#aI"/><use transform="matrix(0.010850694444444444,0,0,0.010850694444444444,30.772569444444443,0)" xlink:href="#aL"/></g><g id="ae"><use transform="matrix(0.010850694444444444,0,0,0.010850694444444444,0,0)" xlink:href="#aG"/><use transform="matrix(0.010850694444444444,0,0,0.010850694444444444,5.381944444444445,0)" xlink:href="#ba"/><use transform="matrix(0.010850694444444444,0,0,0.010850694444444444,24.84809027777778,0)" xlink:href="#aZ"/><use transform="matrix(0.010850694444444444,0,0,0.010850694444444444,37.326388888888886,0)" xlink:href="#bb"/><use transform="matrix(0.010850694444444444,0,0,0.010850694444444444,50.95486111111111,0)" xlink:href="#az"/></g><g id="af"><use transform="matrix(0.010850694444444444,0,0,0.010850694444444444,0,0)" xlink:href="#aU"/><use transform="matrix(0.010850694444444444,0,0,0.010850694444444444,12.565104166666666,0)" xlink:href="#aC"/><use transform="matrix(0.010850694444444444,0,0,0.010850694444444444,25.889756944444443,0)" xlink:href="#aM"/><use transform="matrix(0.010850694444444444,0,0,0.010850694444444444,38.80208333333333,0)" xlink:href="#aZ"/><use transform="matrix(0.010850694444444444,0,0,0.010850694444444444,51.28038194444444,0)" xlink:href="#aB"/></g><g id="ag"><use transform="matrix(0.010850694444444444,0,0,0.010850694444444444,0,0)" xlink:href="#ay"/><use transform="matrix(0.010850694444444444,0,0,0.010850694444444444,16.03732638888889,0)" xlink:href="#az"/><use transform="matrix(0.010850694444444444,0,0,0.010850694444444444,28.559027777777775,0)" xlink:href="#aA"/><use transform="matrix(0.010850694444444444,0,0,0.010850694444444444,40.61414930555556,0)" xlink:href="#az"/><use transform="matrix(0.010850694444444444,0,0,0.010850694444444444,53.56987847222222,0)" xlink:href="#aB"/><use transform="matrix(0.010850694444444444,0,0,0.010850694444444444,58.951822916666664,0)" xlink:href="#aC"/><use transform="matrix(0.010850694444444444,0,0,0.010850694444444444,72.27647569444444,0)" xlink:href="#aD"/><use transform="matrix(0.010850694444444444,0,0,0.010850694444444444,85.88324652777777,0)" xlink:href="#az"/><use transform="matrix(0.010850694444444444,0,0,0.010850694444444444,98.83897569444444,0)" xlink:href="#aE"/></g><path d="M180 0v-1490h908v168H370v486h669v168H370v500h727V0H180" id="bz"/><g id="ah"><use transform="matrix(0.010850694444444444,0,0,0.010850694444444444,0,0)" xlink:href="#bz"/><use transform="matrix(0.010850694444444444,0,0,0.010850694444444444,13.35720486111111,0)" xlink:href="#aN"/><use transform="matrix(0.010850694444444444,0,0,0.010850694444444444,26.161024305555554,0)" xlink:href="#aA"/><use transform="matrix(0.010850694444444444,0,0,0.010850694444444444,38.65017361111111,0)" xlink:href="#aG"/><use transform="matrix(0.010850694444444444,0,0,0.010850694444444444,44.03211805555555,0)" xlink:href="#aE"/><use transform="matrix(0.010850694444444444,0,0,0.010850694444444444,52.0290798611111,0)" xlink:href="#aC"/><use transform="matrix(0.010850694444444444,0,0,0.010850694444444444,65.35373263888887,0)" xlink:href="#aN"/><use transform="matrix(0.010850694444444444,0,0,0.010850694444444444,78.48307291666664,0)" xlink:href="#ba"/><use transform="matrix(0.010850694444444444,0,0,0.010850694444444444,97.94921874999997,0)" xlink:href="#az"/><use transform="matrix(0.010850694444444444,0,0,0.010850694444444444,110.90494791666664,0)" xlink:href="#aN"/><use transform="matrix(0.010850694444444444,0,0,0.010850694444444444,124.03428819444441,0)" xlink:href="#aH"/></g><path d="M635 20c-292 0-500-160-510-396h192c11 142 145 229 315 229 187 0 323-105 323-260 0-161-125-274-346-274H488v-165h121c174 0 294-100 294-254 0-148-104-245-266-245-152 0-291 85-297 230H157c8-234 222-395 484-395 278 0 448 188 448 400 0 168-95 291-247 336v12c190 31 301 169 301 357 0 244-216 425-508 425" id="bA"/><g id="ai"><use transform="matrix(0.010850694444444444,0,0,0.010850694444444444,0,0)" xlink:href="#br"/><use transform="matrix(0.010850694444444444,0,0,0.010850694444444444,12.196180555555555,0)" xlink:href="#bA"/><use transform="matrix(0.010850694444444444,0,0,0.010850694444444444,25.92230902777778,0)" xlink:href="#aO"/></g><g id="aj"><use transform="matrix(0.010850694444444444,0,0,0.010850694444444444,0,0)" xlink:href="#aP"/><use transform="matrix(0.010850694444444444,0,0,0.010850694444444444,7.855902777777778,0)" xlink:href="#aY"/><use transform="matrix(0.010850694444444444,0,0,0.010850694444444444,21.46267361111111,0)" xlink:href="#az"/><use transform="matrix(0.010850694444444444,0,0,0.010850694444444444,33.984375,0)" xlink:href="#aA"/></g><g id="ak"><use transform="matrix(0.010850694444444444,0,0,0.010850694444444444,0,0)" xlink:href="#aN"/><use transform="matrix(0.010850694444444444,0,0,0.010850694444444444,13.129340277777777,0)" xlink:href="#aZ"/><use transform="matrix(0.010850694444444444,0,0,0.010850694444444444,25.60763888888889,0)" xlink:href="#ba"/><use transform="matrix(0.010850694444444444,0,0,0.010850694444444444,45.07378472222221,0)" xlink:href="#az"/><use transform="matrix(0.010850694444444444,0,0,0.010850694444444444,58.02951388888888,0)" xlink:href="#aO"/><use transform="matrix(0.010850694444444444,0,0,0.010850694444444444,69.75911458333333,0)" xlink:href="#aD"/><use transform="matrix(0.010850694444444444,0,0,0.010850694444444444,83.58289930555554,0)" xlink:href="#aZ"/><use transform="matrix(0.010850694444444444,0,0,0.010850694444444444,96.06119791666666,0)" xlink:href="#aM"/><use transform="matrix(0.010850694444444444,0,0,0.010850694444444444,108.75651041666666,0)" xlink:href="#az"/><use transform="matrix(0.010850694444444444,0,0,0.010850694444444444,121.4626736111111,0)" xlink:href="#aT"/></g><g id="al"><use transform="matrix(0.010850694444444444,0,0,0.010850694444444444,0,0)" xlink:href="#br"/><use transform="matrix(0.010850694444444444,0,0,0.010850694444444444,12.196180555555555,0)" xlink:href="#aJ"/><use transform="matrix(0.010850694444444444,0,0,0.010850694444444444,25.33637152777778,0)" xlink:href="#aK"/><use transform="matrix(0.010850694444444444,0,0,0.010850694444444444,38.943142361111114,0)" xlink:href="#az"/><use transform="matrix(0.010850694444444444,0,0,0.010850694444444444,51.89887152777778,0)" xlink:href="#aM"/><use transform="matrix(0.010850694444444444,0,0,0.010850694444444444,64.59418402777777,0)" xlink:href="#aH"/><use transform="matrix(0.010850694444444444,0,0,0.010850694444444444,71.86414930555554,0)" xlink:href="#aB"/></g><g id="am"><use transform="matrix(0.010850694444444444,0,0,0.010850694444444444,0,0)" xlink:href="#aZ"/><use transform="matrix(0.010850694444444444,0,0,0.010850694444444444,12.47829861111111,0)" xlink:href="#aD"/><use transform="matrix(0.010850694444444444,0,0,0.010850694444444444,26.085069444444443,0)" xlink:href="#aD"/><use transform="matrix(0.010850694444444444,0,0,0.010850694444444444,39.69184027777777,0)" xlink:href="#aB"/><use transform="matrix(0.010850694444444444,0,0,0.010850694444444444,45.18229166666666,0)" xlink:href="#bj"/></g><g id="an"><use transform="matrix(0.010850694444444444,0,0,0.010850694444444444,0,0)" xlink:href="#bi"/><use transform="matrix(0.010850694444444444,0,0,0.010850694444444444,14.192708333333332,0)" xlink:href="#aZ"/><use transform="matrix(0.010850694444444444,0,0,0.010850694444444444,26.671006944444443,0)" xlink:href="#aD"/><use transform="matrix(0.010850694444444444,0,0,0.010850694444444444,40.27777777777777,0)" xlink:href="#aG"/><use transform="matrix(0.010850694444444444,0,0,0.010850694444444444,45.65972222222221,0)" xlink:href="#aY"/></g><g id="ao"><use transform="matrix(0.010850694444444444,0,0,0.010850694444444444,0,0)" xlink:href="#aG"/><use transform="matrix(0.010850694444444444,0,0,0.010850694444444444,5.381944444444445,0)" xlink:href="#aH"/><use transform="matrix(0.010850694444444444,0,0,0.010850694444444444,12.434895833333332,0)" xlink:href="#az"/><use transform="matrix(0.010850694444444444,0,0,0.010850694444444444,25.390625,0)" xlink:href="#aE"/><use transform="matrix(0.010850694444444444,0,0,0.010850694444444444,33.756510416666664,0)" xlink:href="#aZ"/><use transform="matrix(0.010850694444444444,0,0,0.010850694444444444,46.23480902777778,0)" xlink:href="#aH"/><use transform="matrix(0.010850694444444444,0,0,0.010850694444444444,53.50477430555556,0)" xlink:href="#aG"/><use transform="matrix(0.010850694444444444,0,0,0.010850694444444444,58.886718749999986,0)" xlink:href="#aC"/><use transform="matrix(0.010850694444444444,0,0,0.010850694444444444,72.21137152777777,0)" xlink:href="#aN"/></g><g id="ap"><use transform="matrix(0.010850694444444444,0,0,0.010850694444444444,0,0)" xlink:href="#aL"/><use transform="matrix(0.010850694444444444,0,0,0.010850694444444444,15.33203125,0)" xlink:href="#aE"/><use transform="matrix(0.010850694444444444,0,0,0.010850694444444444,23.328993055555554,0)" xlink:href="#bb"/><use transform="matrix(0.010850694444444444,0,0,0.010850694444444444,36.95746527777778,0)" xlink:href="#aC"/><use transform="matrix(0.010850694444444444,0,0,0.010850694444444444,50.28211805555556,0)" xlink:href="#aQ"/><use transform="matrix(0.010850694444444444,0,0,0.010850694444444444,66.51475694444444,0)" xlink:href="#ay"/></g><path d="M458 0L52-1490h194c108 439 233 855 324 1313 92-459 221-873 331-1313h216c110 438 234 854 330 1307 92-455 216-869 323-1307h196L1558 0h-221l-256-944c-26-95-50-200-73-331-22 122-44 223-73 331L680 0H458" id="bB"/><g id="aq"><use transform="matrix(0.010850694444444444,0,0,0.010850694444444444,0,0)" xlink:href="#bB"/><use transform="matrix(0.010850694444444444,0,0,0.010850694444444444,20.768229166666668,0)" xlink:href="#aZ"/><use transform="matrix(0.010850694444444444,0,0,0.010850694444444444,33.24652777777778,0)" xlink:href="#aH"/><use transform="matrix(0.010850694444444444,0,0,0.010850694444444444,40.29947916666667,0)" xlink:href="#aM"/><use transform="matrix(0.010850694444444444,0,0,0.010850694444444444,52.99479166666667,0)" xlink:href="#bd"/><use transform="matrix(0.010850694444444444,0,0,0.010850694444444444,66.13498263888889,0)" xlink:href="#az"/><use transform="matrix(0.010850694444444444,0,0,0.010850694444444444,79.09071180555556,0)" xlink:href="#aO"/></g><g id="ar"><use transform="matrix(0.010850694444444444,0,0,0.010850694444444444,0,0)" xlink:href="#ba"/><use transform="matrix(0.010850694444444444,0,0,0.010850694444444444,19.466145833333332,0)" xlink:href="#aZ"/><use transform="matrix(0.010850694444444444,0,0,0.010850694444444444,31.944444444444443,0)" xlink:href="#aG"/><use transform="matrix(0.010850694444444444,0,0,0.010850694444444444,37.326388888888886,0)" xlink:href="#aN"/></g><g id="as"><use transform="matrix(0.010850694444444444,0,0,0.010850694444444444,0,0)" xlink:href="#aK"/><use transform="matrix(0.010850694444444444,0,0,0.010850694444444444,13.606770833333332,0)" xlink:href="#aE"/><use transform="matrix(0.010850694444444444,0,0,0.010850694444444444,21.97265625,0)" xlink:href="#aZ"/><use transform="matrix(0.010850694444444444,0,0,0.010850694444444444,34.450954861111114,0)" xlink:href="#aN"/><use transform="matrix(0.010850694444444444,0,0,0.010850694444444444,47.5802951388889,0)" xlink:href="#aM"/><use transform="matrix(0.010850694444444444,0,0,0.010850694444444444,60.2756076388889,0)" xlink:href="#bd"/></g><g id="at"><use transform="matrix(0.010850694444444444,0,0,0.010850694444444444,0,0)" xlink:href="#aP"/><use transform="matrix(0.010850694444444444,0,0,0.010850694444444444,8.10546875,0)" xlink:href="#aZ"/><use transform="matrix(0.010850694444444444,0,0,0.010850694444444444,20.58376736111111,0)" xlink:href="#aJ"/><use transform="matrix(0.010850694444444444,0,0,0.010850694444444444,33.72395833333333,0)" xlink:href="#aH"/><use transform="matrix(0.010850694444444444,0,0,0.010850694444444444,40.77690972222222,0)" xlink:href="#aC"/><use transform="matrix(0.010850694444444444,0,0,0.010850694444444444,54.1015625,0)" xlink:href="#be"/><use transform="matrix(0.010850694444444444,0,0,0.010850694444444444,64.32291666666667,0)" xlink:href="#aO"/><use transform="matrix(0.010850694444444444,0,0,0.010850694444444444,76.05251736111111,0)" xlink:href="#bj"/><use transform="matrix(0.010850694444444444,0,0,0.010850694444444444,88.54166666666667,0)" xlink:href="#aN"/><use transform="matrix(0.010850694444444444,0,0,0.010850694444444444,101.67100694444444,0)" xlink:href="#aM"/><use transform="matrix(0.010850694444444444,0,0,0.010850694444444444,114.11675347222221,0)" xlink:href="#aT"/></g><g id="au"><use transform="matrix(0.010850694444444444,0,0,0.010850694444444444,0,0)" xlink:href="#aP"/><use transform="matrix(0.010850694444444444,0,0,0.010850694444444444,8.10546875,0)" xlink:href="#ba"/><use transform="matrix(0.010850694444444444,0,0,0.010850694444444444,27.571614583333332,0)" xlink:href="#aZ"/><use transform="matrix(0.010850694444444444,0,0,0.010850694444444444,40.04991319444444,0)" xlink:href="#aN"/><use transform="matrix(0.010850694444444444,0,0,0.010850694444444444,53.17925347222222,0)" xlink:href="#aJ"/><use transform="matrix(0.010850694444444444,0,0,0.010850694444444444,66.31944444444444,0)" xlink:href="#aZ"/><use transform="matrix(0.010850694444444444,0,0,0.010850694444444444,78.79774305555556,0)" xlink:href="#aB"/></g><g id="av"><use transform="matrix(0.010850694444444444,0,0,0.010850694444444444,0,0)" xlink:href="#aO"/><use transform="matrix(0.010850694444444444,0,0,0.010850694444444444,11.729600694444445,0)" xlink:href="#bj"/><use transform="matrix(0.010850694444444444,0,0,0.010850694444444444,24.21875,0)" xlink:href="#aN"/><use transform="matrix(0.010850694444444444,0,0,0.010850694444444444,37.34809027777778,0)" xlink:href="#aM"/><use transform="matrix(0.010850694444444444,0,0,0.010850694444444444,49.79383680555556,0)" xlink:href="#aT"/></g><g id="aw"><use transform="matrix(0.10416666666666667,0,0,0.10416666666666667,0,0)" xlink:href="#aE"/><use transform="matrix(0.10416666666666667,0,0,0.10416666666666667,83.64583333333333,0)" xlink:href="#aG"/><use transform="matrix(0.10416666666666667,0,0,0.10416666666666667,135.3125,0)" xlink:href="#aO"/><use transform="matrix(0.10416666666666667,0,0,0.10416666666666667,247.91666666666669,0)" xlink:href="#br"/><use transform="matrix(0.10416666666666667,0,0,0.10416666666666667,365,0)" xlink:href="#aO"/><use transform="matrix(0.10416666666666667,0,0,0.10416666666666667,477.6041666666667,0)" xlink:href="#aH"/><use transform="matrix(0.10416666666666667,0,0,0.10416666666666667,547.3958333333334,0)" xlink:href="#aE"/><use transform="matrix(0.10416666666666667,0,0,0.10416666666666667,624.1666666666667,0)" xlink:href="#az"/><use transform="matrix(0.10416666666666667,0,0,0.10416666666666667,750.6250000000001,0)" xlink:href="#aZ"/><use transform="matrix(0.10416666666666667,0,0,0.10416666666666667,870.4166666666667,0)" xlink:href="#ba"/></g><g id="ax"><use transform="matrix(0.10416666666666667,0,0,0.10416666666666667,0,0)" xlink:href="#aQ"/><use transform="matrix(0.10416666666666667,0,0,0.10416666666666667,155.83333333333334,0)" xlink:href="#aR"/><use transform="matrix(0.10416666666666667,0,0,0.10416666666666667,213.125,0)" xlink:href="#bx"/><use transform="matrix(0.10416666666666667,0,0,0.10416666666666667,290,0)" xlink:href="#aQ"/><use transform="matrix(0.10416666666666667,0,0,0.10416666666666667,445.83333333333337,0)" xlink:href="#ay"/></g></defs></g></svg>